<?xml version="1.0" encoding="UTF-8"?>
<!DOCTYPE svg PUBLIC "-//W3C//DTD SVG 1.1//EN" "http://www.w3.org/Graphics/SVG/1.1/DTD/svg11.dtd">
<svg xmlns="http://www.w3.org/2000/svg" version="1.1" width="512px" height="512px" style="shape-rendering:geometricPrecision; text-rendering:geometricPrecision; image-rendering:optimizeQuality; fill-rule:evenodd; clip-rule:evenodd" xmlns:xlink="http://www.w3.org/1999/xlink">
<g><path style="opacity:0.991" fill="#6cbbf7" d="M 155.5,8.5 C 168.323,9.49548 181.323,9.82881 194.5,9.5C 194.5,30.5 194.5,51.5 194.5,72.5C 191.5,72.5 188.5,72.5 185.5,72.5C 174.495,72.6665 163.495,72.4998 152.5,72C 149,71.1667 146.833,69 146,65.5C 145.333,49.1667 145.333,32.8333 146,16.5C 147.507,11.8244 150.673,9.15769 155.5,8.5 Z"/></g>
<g><path style="opacity:1" fill="#53aff4" d="M 194.5,9.5 C 197.167,9.5 199.833,9.5 202.5,9.5C 202.5,30.5 202.5,51.5 202.5,72.5C 199.833,72.5 197.167,72.5 194.5,72.5C 194.5,51.5 194.5,30.5 194.5,9.5 Z"/></g>
<g><path style="opacity:0.993" fill="#6cbbf7" d="M 202.5,9.5 C 206.167,9.5 209.833,9.5 213.5,9.5C 213.5,30.5 213.5,51.5 213.5,72.5C 212.5,72.5 211.5,72.5 210.5,72.5C 207.833,72.5 205.167,72.5 202.5,72.5C 202.5,51.5 202.5,30.5 202.5,9.5 Z"/></g>
<g><path style="opacity:1" fill="#55b0f4" d="M 213.5,9.5 C 216.5,9.5 219.5,9.5 222.5,9.5C 222.5,30.5 222.5,51.5 222.5,72.5C 221.167,72.5 219.833,72.5 218.5,72.5C 216.833,72.5 215.167,72.5 213.5,72.5C 213.5,51.5 213.5,30.5 213.5,9.5 Z"/></g>
<g><path style="opacity:0.992" fill="#6cbcf6" d="M 155.5,8.5 C 257.833,8.5 360.167,8.5 462.5,8.5C 449.677,9.49548 436.677,9.82881 423.5,9.5C 420.833,9.5 418.167,9.5 415.5,9.5C 415.5,30.5 415.5,51.5 415.5,72.5C 414.5,72.5 413.5,72.5 412.5,72.5C 354.5,72.5 296.5,72.5 238.5,72.5C 235.833,72.5 233.167,72.5 230.5,72.5C 227.833,72.5 225.167,72.5 222.5,72.5C 222.5,51.5 222.5,30.5 222.5,9.5C 219.5,9.5 216.5,9.5 213.5,9.5C 209.833,9.5 206.167,9.5 202.5,9.5C 199.833,9.5 197.167,9.5 194.5,9.5C 181.323,9.82881 168.323,9.49548 155.5,8.5 Z"/></g>
<g><path style="opacity:1" fill="#53aff4" d="M 396.5,9.5 C 398.833,9.5 401.167,9.5 403.5,9.5C 403.5,30.1667 403.5,50.8333 403.5,71.5C 401.167,71.5 398.833,71.5 396.5,71.5C 396.5,50.8333 396.5,30.1667 396.5,9.5 Z"/></g>
<g><path style="opacity:1" fill="#53aff4" d="M 423.5,9.5 C 423.5,30.5 423.5,51.5 423.5,72.5C 422.5,72.5 421.5,72.5 420.5,72.5C 418.833,72.5 417.167,72.5 415.5,72.5C 415.5,51.5 415.5,30.5 415.5,9.5C 418.167,9.5 420.833,9.5 423.5,9.5 Z"/></g>
<g><path style="opacity:0.991" fill="#6cbbf7" d="M 462.5,8.5 C 467.327,9.15769 470.493,11.8244 472,16.5C 472.667,32.8333 472.667,49.1667 472,65.5C 470.982,69.0147 468.815,71.348 465.5,72.5C 456.833,72.5 448.167,72.5 439.5,72.5C 436.833,72.5 434.167,72.5 431.5,72.5C 428.833,72.5 426.167,72.5 423.5,72.5C 423.5,51.5 423.5,30.5 423.5,9.5C 436.677,9.82881 449.677,9.49548 462.5,8.5 Z"/></g>
<g><path style="opacity:1" fill="#fdfefe" d="M 244.5,26.5 C 261.955,25.4465 267.789,33.1132 262,49.5C 256.053,55.8476 249.219,57.0143 241.5,53C 234.664,46.1418 233.831,38.6418 239,30.5C 241.015,29.3034 242.849,27.9701 244.5,26.5 Z"/></g>
<g><path style="opacity:0.977" fill="#a9d074" d="M 185.5,72.5 C 188.5,72.5 191.5,72.5 194.5,72.5C 197.167,72.5 199.833,72.5 202.5,72.5C 205.167,72.5 207.833,72.5 210.5,72.5C 210.5,90.1667 210.5,107.833 210.5,125.5C 202.16,125.666 193.827,125.5 185.5,125C 183.714,124.215 182.214,123.049 181,121.5C 179.386,107.569 179.053,93.5691 180,79.5C 180.938,76.4025 182.772,74.0691 185.5,72.5 Z"/></g>
<g><path style="opacity:0.978" fill="#a9d074" d="M 439.5,72.5 C 448.167,72.5 456.833,72.5 465.5,72.5C 468.845,73.6799 471.011,76.0132 472,79.5C 472.667,92.5 472.667,105.5 472,118.5C 471.033,121.621 469.2,123.954 466.5,125.5C 457.5,125.5 448.5,125.5 439.5,125.5C 439.5,107.833 439.5,90.1667 439.5,72.5 Z"/></g>
<g><path style="opacity:1" fill="#8dbd57" d="M 210.5,72.5 C 211.5,72.5 212.5,72.5 213.5,72.5C 215.167,72.5 216.833,72.5 218.5,72.5C 218.5,90.1667 218.5,107.833 218.5,125.5C 215.833,125.5 213.167,125.5 210.5,125.5C 210.5,107.833 210.5,90.1667 210.5,72.5 Z"/></g>
<g><path style="opacity:0.994" fill="#a7cf73" d="M 218.5,72.5 C 219.833,72.5 221.167,72.5 222.5,72.5C 225.167,72.5 227.833,72.5 230.5,72.5C 230.5,90.1667 230.5,107.833 230.5,125.5C 227.833,125.5 225.167,125.5 222.5,125.5C 221.167,125.5 219.833,125.5 218.5,125.5C 218.5,107.833 218.5,90.1667 218.5,72.5 Z"/></g>
<g><path style="opacity:1" fill="#8ebe58" d="M 230.5,72.5 C 233.167,72.5 235.833,72.5 238.5,72.5C 238.5,90.1667 238.5,107.833 238.5,125.5C 235.833,125.5 233.167,125.5 230.5,125.5C 230.5,107.833 230.5,90.1667 230.5,72.5 Z"/></g>
<g><path style="opacity:0.992" fill="#a8cf74" d="M 238.5,72.5 C 296.5,72.5 354.5,72.5 412.5,72.5C 412.5,90.1667 412.5,107.833 412.5,125.5C 411.5,125.5 410.5,125.5 409.5,125.5C 366.167,125.5 322.833,125.5 279.5,125.5C 276.833,125.5 274.167,125.5 271.5,125.5C 267.833,125.5 264.167,125.5 260.5,125.5C 257.833,125.5 255.167,125.5 252.5,125.5C 247.833,125.5 243.167,125.5 238.5,125.5C 238.5,107.833 238.5,90.1667 238.5,72.5 Z"/></g>
<g><path style="opacity:1" fill="#8ebe58" d="M 412.5,72.5 C 413.5,72.5 414.5,72.5 415.5,72.5C 417.167,72.5 418.833,72.5 420.5,72.5C 420.5,90.1667 420.5,107.833 420.5,125.5C 419.5,125.5 418.5,125.5 417.5,125.5C 415.833,125.5 414.167,125.5 412.5,125.5C 412.5,107.833 412.5,90.1667 412.5,72.5 Z"/></g>
<g><path style="opacity:0.994" fill="#a8cf74" d="M 420.5,72.5 C 421.5,72.5 422.5,72.5 423.5,72.5C 426.167,72.5 428.833,72.5 431.5,72.5C 431.5,90.1667 431.5,107.833 431.5,125.5C 430.833,125.5 430.167,125.5 429.5,125.5C 429.167,125.5 428.833,125.5 428.5,125.5C 425.833,125.5 423.167,125.5 420.5,125.5C 420.5,107.833 420.5,90.1667 420.5,72.5 Z"/></g>
<g><path style="opacity:1" fill="#8dbd57" d="M 431.5,72.5 C 434.167,72.5 436.833,72.5 439.5,72.5C 439.5,90.1667 439.5,107.833 439.5,125.5C 438.833,125.5 438.167,125.5 437.5,125.5C 437.167,125.5 436.833,125.5 436.5,125.5C 434.833,125.5 433.167,125.5 431.5,125.5C 431.5,107.833 431.5,90.1667 431.5,72.5 Z"/></g>
<g><path style="opacity:1" fill="#8dbd57" d="M 261.5,85.5 C 275.652,84.1508 281.818,90.4841 280,104.5C 272.441,115.484 264.108,116.151 255,106.5C 251.34,97.526 253.506,90.526 261.5,85.5 Z"/></g>
<g><path style="opacity:1" fill="#8dbd57" d="M 379.5,85.5 C 395.037,84.5305 400.87,91.5305 397,106.5C 392.47,112.171 386.637,114.004 379.5,112C 367.547,103.169 367.547,94.3355 379.5,85.5 Z"/></g>
<g><path style="opacity:0.957" fill="#e2dbe2" d="M 252.5,125.5 C 255.167,125.5 257.833,125.5 260.5,125.5C 260.5,126.5 260.5,127.5 260.5,128.5C 257.833,128.167 255.167,127.833 252.5,127.5C 252.5,126.833 252.5,126.167 252.5,125.5 Z"/></g>
<g><path style="opacity:0.956" fill="#965b8e" d="M 260.5,125.5 C 264.167,125.5 267.833,125.5 271.5,125.5C 271.5,128.167 271.5,130.833 271.5,133.5C 267.957,131.562 264.29,129.895 260.5,128.5C 260.5,127.5 260.5,126.5 260.5,125.5 Z"/></g>
<g><path style="opacity:0.986" fill="#995d91" d="M 279.5,125.5 C 322.833,125.5 366.167,125.5 409.5,125.5C 409.5,147.833 409.5,170.167 409.5,192.5C 367.167,192.5 324.833,192.5 282.5,192.5C 282.667,179.163 282.5,165.829 282,152.5C 281.605,149.348 280.772,146.348 279.5,143.5C 279.5,137.5 279.5,131.5 279.5,125.5 Z"/></g>
<g><path style="opacity:0.992" fill="#995d91" d="M 417.5,125.5 C 418.5,125.5 419.5,125.5 420.5,125.5C 423.167,125.5 425.833,125.5 428.5,125.5C 428.5,147.833 428.5,170.167 428.5,192.5C 424.833,192.5 421.167,192.5 417.5,192.5C 417.5,170.167 417.5,147.833 417.5,125.5 Z"/></g>
<g><path style="opacity:0.977" fill="#995c91" d="M 437.5,125.5 C 438.167,125.5 438.833,125.5 439.5,125.5C 448.5,125.5 457.5,125.5 466.5,125.5C 469.228,127.069 471.062,129.402 472,132.5C 472.667,150.167 472.667,167.833 472,185.5C 471.033,188.621 469.2,190.954 466.5,192.5C 465.167,192.5 463.833,192.5 462.5,192.5C 457.833,192.5 453.167,192.5 448.5,192.5C 444.833,192.5 441.167,192.5 437.5,192.5C 437.5,170.167 437.5,147.833 437.5,125.5 Z"/></g>
<g><path style="opacity:0.989" fill="#2c2c39" d="M 221.5,126.5 C 231.653,127.494 241.986,127.828 252.5,127.5C 255.167,127.833 257.833,128.167 260.5,128.5C 264.29,129.895 267.957,131.562 271.5,133.5C 274.577,136.569 277.244,139.903 279.5,143.5C 280.772,146.348 281.605,149.348 282,152.5C 282.5,165.829 282.667,179.163 282.5,192.5C 282.5,197.5 282.5,202.5 282.5,207.5C 282.5,224.167 282.5,240.833 282.5,257.5C 282.5,262.5 282.5,267.5 282.5,272.5C 282.5,277.833 282.5,283.167 282.5,288.5C 282.5,299.5 282.5,310.5 282.5,321.5C 282.5,326.833 282.5,332.167 282.5,337.5C 282.667,384.835 282.5,432.168 282,479.5C 277.935,493.231 268.768,500.731 254.5,502C 182.167,502.667 109.833,502.667 37.5,502C 23.2317,500.731 14.065,493.231 10,479.5C 9.33333,369.5 9.33333,259.5 10,149.5C 14.065,135.769 23.2317,128.269 37.5,127C 98.8324,126.5 160.166,126.333 221.5,126.5 Z"/></g>
<g><path style="opacity:0.997" fill="#945b8d" d="M 222.5,125.5 C 225.167,125.5 227.833,125.5 230.5,125.5C 233.167,125.5 235.833,125.5 238.5,125.5C 243.167,125.5 247.833,125.5 252.5,125.5C 252.5,126.167 252.5,126.833 252.5,127.5C 241.986,127.828 231.653,127.494 221.5,126.5C 222.167,126.5 222.5,126.167 222.5,125.5 Z"/></g>
<g><path style="opacity:1" fill="#f7f5f7" d="M 271.5,125.5 C 274.167,125.5 276.833,125.5 279.5,125.5C 279.5,131.5 279.5,137.5 279.5,143.5C 277.244,139.903 274.577,136.569 271.5,133.5C 271.5,130.833 271.5,128.167 271.5,125.5 Z"/></g>
<g><path style="opacity:1" fill="#fdfdfd" d="M 409.5,125.5 C 410.5,125.5 411.5,125.5 412.5,125.5C 414.167,125.5 415.833,125.5 417.5,125.5C 417.5,147.833 417.5,170.167 417.5,192.5C 414.833,192.5 412.167,192.5 409.5,192.5C 409.5,170.167 409.5,147.833 409.5,125.5 Z"/></g>
<g><path style="opacity:1" fill="#caabc6" d="M 428.5,125.5 C 428.833,125.5 429.167,125.5 429.5,125.5C 429.5,147.5 429.5,169.5 429.5,191.5C 431.833,191.5 434.167,191.5 436.5,191.5C 436.5,169.5 436.5,147.5 436.5,125.5C 436.833,125.5 437.167,125.5 437.5,125.5C 437.5,147.833 437.5,170.167 437.5,192.5C 434.5,192.5 431.5,192.5 428.5,192.5C 428.5,170.167 428.5,147.833 428.5,125.5 Z"/></g>
<g><path style="opacity:1" fill="#fefefe" d="M 429.5,125.5 C 430.167,125.5 430.833,125.5 431.5,125.5C 433.167,125.5 434.833,125.5 436.5,125.5C 436.5,147.5 436.5,169.5 436.5,191.5C 434.167,191.5 431.833,191.5 429.5,191.5C 429.5,169.5 429.5,147.5 429.5,125.5 Z"/></g>
<g><path style="opacity:1" fill="#8f5387" d="M 299.5,140.5 C 329.502,140.333 359.502,140.5 389.5,141C 390.333,141.833 391.167,142.667 392,143.5C 392.667,153.5 392.667,163.5 392,173.5C 391.5,175.333 390.333,176.5 388.5,177C 359.167,177.667 329.833,177.667 300.5,177C 299,176.167 297.833,175 297,173.5C 296.333,163.833 296.333,154.167 297,144.5C 297.662,143.016 298.496,141.683 299.5,140.5 Z"/></g>
<g><path style="opacity:1" fill="#fbfbfc" d="M 47.5,155.5 C 113.168,155.333 178.834,155.5 244.5,156C 249,157.833 252.167,161 254,165.5C 254.667,255.5 254.667,345.5 254,435.5C 252.5,441 249,444.5 243.5,446C 178.5,446.667 113.5,446.667 48.5,446C 43.0264,444.526 39.5264,441.026 38,435.5C 37.3333,345.5 37.3333,255.5 38,165.5C 40.0223,160.98 43.189,157.647 47.5,155.5 Z"/></g>
<g><path style="opacity:1" fill="#e46a6c" d="M 82.5,177.5 C 96.0568,177.931 102.223,184.931 101,198.5C 97.7152,210.813 90.2152,214.647 78.5,210C 70.3727,201.484 69.5393,192.317 76,182.5C 78.3256,180.934 80.4922,179.268 82.5,177.5 Z"/></g>
<g><path style="opacity:1" fill="#606076" d="M 127.5,185.5 C 162.502,185.333 197.502,185.5 232.5,186C 233.833,188 233.833,190 232.5,192C 197.5,192.667 162.5,192.667 127.5,192C 124.939,189.844 124.939,187.677 127.5,185.5 Z"/></g>
<g><path style="opacity:0.997" fill="#e36769" d="M 282.5,192.5 C 324.833,192.5 367.167,192.5 409.5,192.5C 412.167,192.5 414.833,192.5 417.5,192.5C 421.167,192.5 424.833,192.5 428.5,192.5C 431.5,192.5 434.5,192.5 437.5,192.5C 441.167,192.5 444.833,192.5 448.5,192.5C 448.5,219.167 448.5,245.833 448.5,272.5C 442.833,272.5 437.167,272.5 431.5,272.5C 431.167,272.5 430.833,272.5 430.5,272.5C 427.5,272.5 424.5,272.5 421.5,272.5C 421.167,272.5 420.833,272.5 420.5,272.5C 374.5,272.5 328.5,272.5 282.5,272.5C 282.5,267.5 282.5,262.5 282.5,257.5C 325.168,257.667 367.835,257.5 410.5,257C 411.333,256.167 412.167,255.333 413,254.5C 413.667,239.833 413.667,225.167 413,210.5C 412.167,209.667 411.333,208.833 410.5,208C 367.835,207.5 325.168,207.333 282.5,207.5C 282.5,202.5 282.5,197.5 282.5,192.5 Z"/></g>
<g><path style="opacity:0.992" fill="#e46769" d="M 462.5,192.5 C 463.833,192.5 465.167,192.5 466.5,192.5C 476.506,192.334 486.506,192.5 496.5,193C 498.333,194.167 499.833,195.667 501,197.5C 501.667,220.833 501.667,244.167 501,267.5C 500.052,269.57 498.552,271.07 496.5,272C 486.172,272.5 475.839,272.666 465.5,272.5C 464.5,272.5 463.5,272.5 462.5,272.5C 462.5,245.833 462.5,219.167 462.5,192.5 Z"/></g>
<g><path style="opacity:1" fill="#d85350" d="M 448.5,192.5 C 453.167,192.5 457.833,192.5 462.5,192.5C 462.5,219.167 462.5,245.833 462.5,272.5C 457.833,272.5 453.167,272.5 448.5,272.5C 448.5,245.833 448.5,219.167 448.5,192.5 Z"/></g>
<g><path style="opacity:1" fill="#606076" d="M 127.5,207.5 C 162.502,207.333 197.502,207.5 232.5,208C 233.833,210 233.833,212 232.5,214C 197.5,214.667 162.5,214.667 127.5,214C 124.939,211.844 124.939,209.677 127.5,207.5 Z"/></g>
<g><path style="opacity:1" fill="#d8524f" d="M 282.5,207.5 C 325.168,207.333 367.835,207.5 410.5,208C 411.333,208.833 412.167,209.667 413,210.5C 413.667,225.167 413.667,239.833 413,254.5C 412.167,255.333 411.333,256.167 410.5,257C 367.835,257.5 325.168,257.667 282.5,257.5C 282.5,240.833 282.5,224.167 282.5,207.5 Z"/></g>
<g><path style="opacity:1" fill="#e46a6b" d="M 68.5,215.5 C 80.1714,215.333 91.8381,215.5 103.5,216C 108.974,217.474 112.474,220.974 114,226.5C 114.667,232.167 114.667,237.833 114,243.5C 95.5765,244.493 77.0765,244.826 58.5,244.5C 58.3338,238.158 58.5005,231.825 59,225.5C 61.0223,220.98 64.189,217.647 68.5,215.5 Z"/></g>
<g><path style="opacity:1" fill="#68687d" d="M 127.5,229.5 C 162.502,229.333 197.502,229.5 232.5,230C 233.982,232.592 233.648,234.925 231.5,237C 197.167,237.667 162.833,237.667 128.5,237C 125.034,234.806 124.7,232.306 127.5,229.5 Z"/></g>
<g><path style="opacity:1" fill="#70bdf7" d="M 201.5,264.5 C 215.043,264.888 221.21,271.888 220,285.5C 216.356,298.707 208.523,302.207 196.5,296C 187.27,283.652 188.937,273.152 201.5,264.5 Z"/></g>
<g><path style="opacity:1" fill="#68687d" d="M 60.5,271.5 C 94.835,271.333 129.168,271.5 163.5,272C 166.859,274.034 167.192,276.368 164.5,279C 129.5,279.667 94.5,279.667 59.5,279C 58.0825,276.257 58.4159,273.757 60.5,271.5 Z"/></g>
<g><path style="opacity:0.986" fill="#ffc763" d="M 431.5,272.5 C 437.167,272.5 442.833,272.5 448.5,272.5C 453.167,272.5 457.833,272.5 462.5,272.5C 463.5,272.5 464.5,272.5 465.5,272.5C 468.815,273.652 470.982,275.985 472,279.5C 472.959,297.233 472.625,314.899 471,332.5C 469.238,335.268 466.738,336.768 463.5,337C 452.839,337.5 442.172,337.667 431.5,337.5C 431.5,315.833 431.5,294.167 431.5,272.5 Z"/></g>
<g><path style="opacity:1" fill="#fec763" d="M 282.5,272.5 C 328.5,272.5 374.5,272.5 420.5,272.5C 420.5,294.167 420.5,315.833 420.5,337.5C 374.5,337.5 328.5,337.5 282.5,337.5C 282.5,332.167 282.5,326.833 282.5,321.5C 299.503,321.667 316.503,321.5 333.5,321C 349.919,320.131 365.919,317.131 381.5,312C 390.391,307.891 390.724,303.224 382.5,298C 363.979,292.141 344.979,288.808 325.5,288C 311.151,287.297 296.817,287.464 282.5,288.5C 282.5,283.167 282.5,277.833 282.5,272.5 Z"/></g>
<g><path style="opacity:0.986" fill="#dfc45f" d="M 420.5,272.5 C 420.833,272.5 421.167,272.5 421.5,272.5C 421.5,293.833 421.5,315.167 421.5,336.5C 424.5,336.5 427.5,336.5 430.5,336.5C 430.5,315.167 430.5,293.833 430.5,272.5C 430.833,272.5 431.167,272.5 431.5,272.5C 431.5,294.167 431.5,315.833 431.5,337.5C 427.833,337.5 424.167,337.5 420.5,337.5C 420.5,315.833 420.5,294.167 420.5,272.5 Z"/></g>
<g><path style="opacity:1" fill="#8dbd57" d="M 421.5,272.5 C 424.5,272.5 427.5,272.5 430.5,272.5C 430.5,293.833 430.5,315.167 430.5,336.5C 427.5,336.5 424.5,336.5 421.5,336.5C 421.5,315.167 421.5,293.833 421.5,272.5 Z"/></g>
<g><path style="opacity:1" fill="#8ebd57" d="M 282.5,321.5 C 282.5,310.5 282.5,299.5 282.5,288.5C 296.817,287.464 311.151,287.297 325.5,288C 344.979,288.808 363.979,292.141 382.5,298C 390.724,303.224 390.391,307.891 381.5,312C 365.919,317.131 349.919,320.131 333.5,321C 316.503,321.5 299.503,321.667 282.5,321.5 Z"/></g>
<g><path style="opacity:1" fill="#606076" d="M 59.5,294.5 C 94.5016,294.333 129.502,294.5 164.5,295C 167.167,297 167.167,299 164.5,301C 129.5,301.667 94.5,301.667 59.5,301C 58.232,298.837 58.232,296.67 59.5,294.5 Z"/></g>
<g><path style="opacity:1" fill="#6fbdf7" d="M 187.5,302.5 C 199.171,302.333 210.838,302.5 222.5,303C 227.573,304.406 231.073,307.572 233,312.5C 233.5,318.825 233.666,325.158 233.5,331.5C 214.833,331.5 196.167,331.5 177.5,331.5C 177.116,324.411 177.616,317.411 179,310.5C 181.074,306.923 183.907,304.256 187.5,302.5 Z"/></g>
<g><path style="opacity:1" fill="#606076" d="M 59.5,316.5 C 94.5016,316.333 129.502,316.5 164.5,317C 167.167,319 167.167,321 164.5,323C 129.5,323.667 94.5,323.667 59.5,323C 58.232,320.837 58.232,318.67 59.5,316.5 Z"/></g>
<g><path style="opacity:1" fill="#ffc965" d="M 82.5,351.5 C 96.0431,351.888 102.21,358.888 101,372.5C 97.0464,385.234 89.2131,388.734 77.5,383C 68.1501,370.609 69.8168,360.109 82.5,351.5 Z"/></g>
<g><path style="opacity:1" fill="#67677c" d="M 128.5,358.5 C 162.835,358.333 197.168,358.5 231.5,359C 233.648,361.075 233.982,363.408 232.5,366C 197.5,366.667 162.5,366.667 127.5,366C 126.426,365.261 125.759,364.261 125.5,363C 126.315,361.357 127.315,359.857 128.5,358.5 Z"/></g>
<g><path style="opacity:1" fill="#68687d" d="M 128.5,380.5 C 162.835,380.333 197.168,380.5 231.5,381C 233.648,383.075 233.982,385.408 232.5,388C 197.5,388.667 162.5,388.667 127.5,388C 126.426,387.261 125.759,386.261 125.5,385C 126.315,383.357 127.315,381.857 128.5,380.5 Z"/></g>
<g><path style="opacity:1" fill="#ffc865" d="M 67.5,389.5 C 79.5046,389.333 91.5046,389.5 103.5,390C 109,391.5 112.5,395 114,400.5C 114.667,406.167 114.667,411.833 114,417.5C 95.5765,418.493 77.0765,418.826 58.5,418.5C 58.3338,412.158 58.5005,405.825 59,399.5C 60.9779,395.362 63.8112,392.029 67.5,389.5 Z"/></g>
<g><path style="opacity:1" fill="#606076" d="M 127.5,403.5 C 162.502,403.333 197.502,403.5 232.5,404C 233.833,406 233.833,408 232.5,410C 197.5,410.667 162.5,410.667 127.5,410C 124.939,407.844 124.939,405.677 127.5,403.5 Z"/></g>
<g><path style="opacity:1" fill="#fafafa" d="M 131.5,462.5 C 141.912,462.074 152.246,462.574 162.5,464C 167.081,467.438 168.581,471.938 167,477.5C 165.833,480 164,481.833 161.5,483C 151.167,483.667 140.833,483.667 130.5,483C 124.891,479.723 123.058,474.89 125,468.5C 127.063,466.266 129.229,464.266 131.5,462.5 Z"/></g>
</svg>
