<?xml version="1.0" encoding="UTF-8"?>
<!DOCTYPE svg PUBLIC "-//W3C//DTD SVG 1.1//EN" "http://www.w3.org/Graphics/SVG/1.1/DTD/svg11.dtd">
<svg xmlns="http://www.w3.org/2000/svg" version="1.1" width="512px" height="512px" style="shape-rendering:geometricPrecision; text-rendering:geometricPrecision; image-rendering:optimizeQuality; fill-rule:evenodd; clip-rule:evenodd" xmlns:xlink="http://www.w3.org/1999/xlink">
<g><path style="opacity:1" fill="#cbffb7" d="M -0.5,95.5 C 20.8333,95.5 42.1667,95.5 63.5,95.5C 63.6665,107.505 63.4999,119.505 63,131.5C 60.5,147.333 51.3333,156.5 35.5,159C 23.5046,159.5 11.5046,159.667 -0.5,159.5C -0.5,138.167 -0.5,116.833 -0.5,95.5 Z"/></g>
<g><path style="opacity:1" fill="#93fea8" d="M 63.5,95.5 C 116.833,95.5 170.167,95.5 223.5,95.5C 223.5,106.5 223.5,117.5 223.5,128.5C 218.5,128.5 213.5,128.5 208.5,128.5C 208.5,135.5 208.5,142.5 208.5,149.5C 188.616,152.546 176.116,163.879 171,183.5C 167.925,211.417 179.758,229.584 206.5,238C 212.157,238.499 217.824,238.666 223.5,238.5C 223.5,248.5 223.5,258.5 223.5,268.5C 216.11,269.785 209.61,268.119 204,263.5C 202.132,260.395 200.965,257.062 200.5,253.5C 190.5,253.5 180.5,253.5 170.5,253.5C 172.189,277.194 184.523,292.194 207.5,298.5C 208.497,305.134 208.83,311.8 208.5,318.5C 213.5,318.5 218.5,318.5 223.5,318.5C 223.5,329.5 223.5,340.5 223.5,351.5C 170.167,351.5 116.833,351.5 63.5,351.5C 63.6666,338.496 63.4999,325.496 63,312.5C 59.3096,298.811 50.4762,290.644 36.5,288C 24.1712,287.5 11.8378,287.333 -0.5,287.5C -0.5,244.833 -0.5,202.167 -0.5,159.5C 11.5046,159.667 23.5046,159.5 35.5,159C 51.3333,156.5 60.5,147.333 63,131.5C 63.4999,119.505 63.6665,107.505 63.5,95.5 Z"/></g>
<g><path style="opacity:1" fill="#28ce9f" d="M 223.5,95.5 C 276.833,95.5 330.167,95.5 383.5,95.5C 383.333,107.505 383.5,119.505 384,131.5C 386.188,146.02 394.355,155.187 408.5,159C 421.496,159.5 434.496,159.667 447.5,159.5C 447.5,202.167 447.5,244.833 447.5,287.5C 395.833,278.5 374.5,299.833 383.5,351.5C 330.167,351.5 276.833,351.5 223.5,351.5C 223.5,340.5 223.5,329.5 223.5,318.5C 228.5,318.5 233.5,318.5 238.5,318.5C 238.5,311.5 238.5,304.5 238.5,297.5C 258.827,294.343 271.327,282.676 276,262.5C 278.667,233.991 266.167,216.158 238.5,209C 233.511,208.501 228.511,208.334 223.5,208.5C 223.5,198.5 223.5,188.5 223.5,178.5C 231.461,177.046 238.294,179.046 244,184.5C 245.707,186.909 246.54,189.575 246.5,192.5C 256.5,192.5 266.5,192.5 276.5,192.5C 275.361,172.725 265.694,158.892 247.5,151C 244.568,150.047 241.568,149.547 238.5,149.5C 238.5,142.5 238.5,135.5 238.5,128.5C 233.5,128.5 228.5,128.5 223.5,128.5C 223.5,117.5 223.5,106.5 223.5,95.5 Z"/></g>
<g><path style="opacity:1" fill="#93fea8" d="M 383.5,95.5 C 404.833,95.5 426.167,95.5 447.5,95.5C 447.5,116.833 447.5,138.167 447.5,159.5C 434.496,159.667 421.496,159.5 408.5,159C 394.355,155.187 386.188,146.02 384,131.5C 383.5,119.505 383.333,107.505 383.5,95.5 Z"/></g>
<g><path style="opacity:1" fill="#29cfa0" d="M 223.5,128.5 C 223.5,145.167 223.5,161.833 223.5,178.5C 206.106,176.389 198.939,183.723 202,200.5C 203.892,204.058 206.725,206.558 210.5,208C 214.821,208.499 219.154,208.666 223.5,208.5C 223.5,218.5 223.5,228.5 223.5,238.5C 217.824,238.666 212.157,238.499 206.5,238C 179.758,229.584 167.925,211.417 171,183.5C 176.116,163.879 188.616,152.546 208.5,149.5C 208.5,142.5 208.5,135.5 208.5,128.5C 213.5,128.5 218.5,128.5 223.5,128.5 Z"/></g>
<g><path style="opacity:1" fill="#2e999d" d="M 223.5,128.5 C 228.5,128.5 233.5,128.5 238.5,128.5C 238.5,135.5 238.5,142.5 238.5,149.5C 241.568,149.547 244.568,150.047 247.5,151C 265.694,158.892 275.361,172.725 276.5,192.5C 266.5,192.5 256.5,192.5 246.5,192.5C 246.54,189.575 245.707,186.909 244,184.5C 238.294,179.046 231.461,177.046 223.5,178.5C 223.5,161.833 223.5,145.167 223.5,128.5 Z"/></g>
<g><path style="opacity:1" fill="#2f999c" d="M 447.5,159.5 C 468.833,159.5 490.167,159.5 511.5,159.5C 511.5,244.833 511.5,330.167 511.5,415.5C 415.5,415.5 319.5,415.5 223.5,415.5C 223.5,394.167 223.5,372.833 223.5,351.5C 276.833,351.5 330.167,351.5 383.5,351.5C 404.833,351.5 426.167,351.5 447.5,351.5C 447.5,330.167 447.5,308.833 447.5,287.5C 447.5,244.833 447.5,202.167 447.5,159.5 Z"/></g>
<g><path style="opacity:1" fill="#93fea8" d="M 223.5,178.5 C 223.5,188.5 223.5,198.5 223.5,208.5C 219.154,208.666 214.821,208.499 210.5,208C 206.725,206.558 203.892,204.058 202,200.5C 198.939,183.723 206.106,176.389 223.5,178.5 Z"/></g>
<g><path style="opacity:1" fill="#2cd0a0" d="M 87.5,208.5 C 97.8333,208.5 108.167,208.5 118.5,208.5C 118.5,218.5 118.5,228.5 118.5,238.5C 108.167,238.5 97.8333,238.5 87.5,238.5C 87.5,228.5 87.5,218.5 87.5,208.5 Z"/></g>
<g><path style="opacity:1" fill="#2e999d" d="M 223.5,208.5 C 228.511,208.334 233.511,208.501 238.5,209C 266.167,216.158 278.667,233.991 276,262.5C 271.327,282.676 258.827,294.343 238.5,297.5C 238.5,304.5 238.5,311.5 238.5,318.5C 233.5,318.5 228.5,318.5 223.5,318.5C 223.5,301.833 223.5,285.167 223.5,268.5C 239.513,270.975 247.013,264.308 246,248.5C 243.96,243.124 240.127,239.957 234.5,239C 230.848,238.501 227.182,238.335 223.5,238.5C 223.5,228.5 223.5,218.5 223.5,208.5 Z"/></g>
<g><path style="opacity:1" fill="#2f999c" d="M 329.5,208.5 C 339.167,208.5 348.833,208.5 358.5,208.5C 358.5,218.5 358.5,228.5 358.5,238.5C 348.833,238.5 339.167,238.5 329.5,238.5C 329.5,228.5 329.5,218.5 329.5,208.5 Z"/></g>
<g><path style="opacity:1" fill="#28ce9f" d="M 223.5,238.5 C 227.182,238.335 230.848,238.501 234.5,239C 240.127,239.957 243.96,243.124 246,248.5C 247.013,264.308 239.513,270.975 223.5,268.5C 223.5,258.5 223.5,248.5 223.5,238.5 Z"/></g>
<g><path style="opacity:1" fill="#29cfa0" d="M 223.5,268.5 C 223.5,285.167 223.5,301.833 223.5,318.5C 218.5,318.5 213.5,318.5 208.5,318.5C 208.83,311.8 208.497,305.134 207.5,298.5C 184.523,292.194 172.189,277.194 170.5,253.5C 180.5,253.5 190.5,253.5 200.5,253.5C 200.965,257.062 202.132,260.395 204,263.5C 209.61,268.119 216.11,269.785 223.5,268.5 Z"/></g>
<g><path style="opacity:1" fill="#cbffb7" d="M -0.5,287.5 C 11.8378,287.333 24.1712,287.5 36.5,288C 50.4762,290.644 59.3096,298.811 63,312.5C 63.4999,325.496 63.6666,338.496 63.5,351.5C 42.1667,351.5 20.8333,351.5 -0.5,351.5C -0.5,330.167 -0.5,308.833 -0.5,287.5 Z"/></g>
<g><path style="opacity:1" fill="#93fea8" d="M 447.5,287.5 C 447.5,308.833 447.5,330.167 447.5,351.5C 426.167,351.5 404.833,351.5 383.5,351.5C 374.5,299.833 395.833,278.5 447.5,287.5 Z"/></g>
<g><path style="opacity:1" fill="#28cf9f" d="M 63.5,351.5 C 116.833,351.5 170.167,351.5 223.5,351.5C 223.5,372.833 223.5,394.167 223.5,415.5C 170.167,415.5 116.833,415.5 63.5,415.5C 63.5,394.167 63.5,372.833 63.5,351.5 Z"/></g>
</svg>
