<?xml version="1.0" encoding="UTF-8"?>
<!DOCTYPE svg PUBLIC "-//W3C//DTD SVG 1.1//EN" "http://www.w3.org/Graphics/SVG/1.1/DTD/svg11.dtd">
<svg xmlns="http://www.w3.org/2000/svg" version="1.1" width="512px" height="512px" style="shape-rendering:geometricPrecision; text-rendering:geometricPrecision; image-rendering:optimizeQuality; fill-rule:evenodd; clip-rule:evenodd" xmlns:xlink="http://www.w3.org/1999/xlink">
<g><path style="opacity:0.998" fill="#fedaa5" d="M 322.5,43.5 C 332.938,45.6614 339.438,51.9947 342,62.5C 342.5,138.499 342.667,214.499 342.5,290.5C 274.5,290.5 206.5,290.5 138.5,290.5C 138.5,273.167 138.5,255.833 138.5,238.5C 138.5,205.5 138.5,172.5 138.5,139.5C 138.814,126.087 138.481,112.754 137.5,99.5C 137.071,85.4406 137.571,71.4406 139,57.5C 142.314,50.8513 147.481,46.3513 154.5,44C 210.499,43.5 266.499,43.3333 322.5,43.5 Z"/></g>
<g><path style="opacity:1" fill="#fdce85" d="M 322.5,43.5 C 333.838,43.3335 345.172,43.5001 356.5,44C 365.105,46.9379 370.605,52.7712 373,61.5C 373.5,74.1623 373.667,86.8289 373.5,99.5C 373.5,112.5 373.5,125.5 373.5,138.5C 373.5,153.167 373.5,167.833 373.5,182.5C 373.214,218.501 372.881,254.501 372.5,290.5C 362.5,290.5 352.5,290.5 342.5,290.5C 342.667,214.499 342.5,138.499 342,62.5C 339.438,51.9947 332.938,45.6614 322.5,43.5 Z"/></g>
<g><path style="opacity:1" fill="#dd8067" d="M 296.5,126.5 C 286.167,126.5 275.833,126.5 265.5,126.5C 267.366,105.225 259.033,89.5583 240.5,79.5C 268.109,72.5554 286.609,82.5554 296,109.5C 296.499,115.157 296.666,120.824 296.5,126.5 Z"/></g>
<g><path style="opacity:1" fill="#e49280" d="M 240.5,79.5 C 259.033,89.5583 267.366,105.225 265.5,126.5C 248.167,126.5 230.833,126.5 213.5,126.5C 211.443,104.261 220.443,88.5948 240.5,79.5 Z"/></g>
<g><path style="opacity:1" fill="#ade094" d="M 373.5,99.5 C 401.833,99.5 430.167,99.5 458.5,99.5C 469.105,101.263 476.272,107.263 480,117.5C 480.5,193.833 480.667,270.166 480.5,346.5C 490.833,346.5 501.167,346.5 511.5,346.5C 511.5,346.833 511.5,347.167 511.5,347.5C 501.167,347.5 490.833,347.5 480.5,347.5C 444.833,347.5 409.167,347.5 373.5,347.5C 373.5,335.167 373.5,322.833 373.5,310.5C 392.167,310.5 410.833,310.5 429.5,310.5C 440.172,310.667 450.839,310.5 461.5,310C 465.388,307.778 468.221,304.612 470,300.5C 470.667,286.5 470.667,272.5 470,258.5C 463.445,237.284 448.945,227.618 426.5,229.5C 430.956,223.242 433.789,216.242 435,208.5C 435.5,199.84 435.666,191.173 435.5,182.5C 437.168,160.655 428.168,145.155 408.5,136C 398.374,132.512 388.374,132.679 378.5,136.5C 376.716,136.893 375.05,137.559 373.5,138.5C 373.5,125.5 373.5,112.5 373.5,99.5 Z"/></g>
<g><path style="opacity:1" fill="#8ac9fd" d="M 137.5,99.5 C 138.481,112.754 138.814,126.087 138.5,139.5C 138.167,139.5 137.833,139.5 137.5,139.5C 126.028,132.918 114.028,131.918 101.5,136.5C 81.9886,145.507 73.322,160.84 75.5,182.5C 75.3335,192.172 75.5002,201.839 76,211.5C 77.3759,218.084 80.2093,223.918 84.5,229C 79.6486,229.174 74.9819,229.674 70.5,230.5C 55.0326,233.799 45.1993,243.132 41,258.5C 40.3333,272.5 40.3333,286.5 41,300.5C 43.1798,305.853 47.0131,309.187 52.5,310.5C 80.6618,311.498 108.995,311.831 137.5,311.5C 137.5,323.5 137.5,335.5 137.5,347.5C 91.5,347.5 45.5,347.5 -0.5,347.5C -0.5,270.167 -0.5,192.833 -0.5,115.5C 3.63241,105.878 10.9657,100.711 21.5,100C 60.1652,99.5 98.8319,99.3333 137.5,99.5 Z"/></g>
<g><path style="opacity:1" fill="#97da7b" d="M 458.5,99.5 C 471.209,99.1518 483.875,99.6518 496.5,101C 503.353,104.021 508.353,108.855 511.5,115.5C 511.5,192.5 511.5,269.5 511.5,346.5C 501.167,346.5 490.833,346.5 480.5,346.5C 480.667,270.166 480.5,193.833 480,117.5C 476.272,107.263 469.105,101.263 458.5,99.5 Z"/></g>
<g><path style="opacity:1" fill="#ffcdbe" d="M 213.5,126.5 C 230.833,126.5 248.167,126.5 265.5,126.5C 265.666,135.173 265.5,143.84 265,152.5C 262.169,167.817 253.669,178.484 239.5,184.5C 233.509,182.497 228.509,178.997 224.5,174C 219.845,173.501 215.179,173.334 210.5,173.5C 214.312,172.676 218.312,172.176 222.5,172C 219.071,167.307 216.571,162.141 215,156.5C 213.669,146.55 213.169,136.55 213.5,126.5 Z"/></g>
<g><path style="opacity:1" fill="#feaf9d" d="M 265.5,126.5 C 275.833,126.5 286.167,126.5 296.5,126.5C 296.666,135.173 296.5,143.84 296,152.5C 295.097,159.885 292.264,166.385 287.5,172C 292.019,172.175 296.353,172.675 300.5,173.5C 295.821,173.334 291.155,173.501 286.5,174C 285.29,175.039 284.29,176.206 283.5,177.5C 270.054,188.394 255.387,190.728 239.5,184.5C 253.669,178.484 262.169,167.817 265,152.5C 265.5,143.84 265.666,135.173 265.5,126.5 Z"/></g>
<g><path style="opacity:1" fill="#dd7f66" d="M 137.5,139.5 C 137.5,153.833 137.5,168.167 137.5,182.5C 134.167,182.5 130.833,182.5 127.5,182.5C 128.603,161.348 119.937,146.015 101.5,136.5C 114.028,131.918 126.028,132.918 137.5,139.5 Z"/></g>
<g><path style="opacity:1" fill="#dd7f66" d="M 435.5,182.5 C 425.167,182.5 414.833,182.5 404.5,182.5C 405.624,161.395 396.958,146.062 378.5,136.5C 388.374,132.679 398.374,132.512 408.5,136C 428.168,145.155 437.168,160.655 435.5,182.5 Z"/></g>
<g><path style="opacity:1" fill="#e39280" d="M 101.5,136.5 C 119.937,146.015 128.603,161.348 127.5,182.5C 110.167,182.5 92.8333,182.5 75.5,182.5C 73.322,160.84 81.9886,145.507 101.5,136.5 Z"/></g>
<g><path style="opacity:1" fill="#e3917f" d="M 378.5,136.5 C 396.958,146.062 405.624,161.395 404.5,182.5C 394.167,182.5 383.833,182.5 373.5,182.5C 373.5,167.833 373.5,153.167 373.5,138.5C 375.05,137.559 376.716,136.893 378.5,136.5 Z"/></g>
<g><path style="opacity:1" fill="#fe646f" d="M 210.5,173.5 C 215.179,173.334 219.845,173.501 224.5,174C 228.509,178.997 233.509,182.497 239.5,184.5C 255.387,190.728 270.054,188.394 283.5,177.5C 291.821,183.01 297.321,190.677 300,200.5C 300.667,215.167 300.667,229.833 300,244.5C 297.952,249.045 294.785,252.378 290.5,254.5C 257.165,254.667 223.832,254.5 190.5,254C 185,252.5 181.5,249 180,243.5C 179.833,236.333 179.667,229.167 179.5,222C 175.506,200.324 183.173,184.658 202.5,175C 205.063,173.921 207.729,173.421 210.5,173.5 Z"/></g>
<g><path style="opacity:1" fill="#fd4755" d="M 300.5,173.5 C 314.877,175.279 324.71,182.945 330,196.5C 331.621,212.433 331.954,228.433 331,244.5C 329.073,249.428 325.573,252.594 320.5,254C 310.506,254.5 300.506,254.666 290.5,254.5C 294.785,252.378 297.952,249.045 300,244.5C 300.667,229.833 300.667,215.167 300,200.5C 297.321,190.677 291.821,183.01 283.5,177.5C 284.29,176.206 285.29,175.039 286.5,174C 291.155,173.501 295.821,173.334 300.5,173.5 Z"/></g>
<g><path style="opacity:1" fill="#fecdbe" d="M 75.5,182.5 C 92.8333,182.5 110.167,182.5 127.5,182.5C 130.286,200.01 126.786,216.01 117,230.5C 112.51,235.163 107.343,238.83 101.5,241.5C 95.3685,239.264 90.0351,235.764 85.5,231C 80.5111,230.501 75.5111,230.334 70.5,230.5C 74.9819,229.674 79.6486,229.174 84.5,229C 80.2093,223.918 77.3759,218.084 76,211.5C 75.5002,201.839 75.3335,192.172 75.5,182.5 Z"/></g>
<g><path style="opacity:1" fill="#feb09d" d="M 137.5,139.5 C 137.833,139.5 138.167,139.5 138.5,139.5C 138.5,172.5 138.5,205.5 138.5,238.5C 126.511,245.164 114.178,246.164 101.5,241.5C 107.343,238.83 112.51,235.163 117,230.5C 126.786,216.01 130.286,200.01 127.5,182.5C 130.833,182.5 134.167,182.5 137.5,182.5C 137.5,168.167 137.5,153.833 137.5,139.5 Z"/></g>
<g><path style="opacity:1" fill="#fdcdbe" d="M 373.5,182.5 C 383.833,182.5 394.167,182.5 404.5,182.5C 404.666,191.506 404.5,200.506 404,209.5C 400.982,224.05 392.815,234.55 379.5,241C 380.056,241.383 380.389,241.883 380.5,242.5C 378.16,241.914 375.993,240.914 374,239.5C 373.5,256.497 373.333,273.497 373.5,290.5C 373.167,290.5 372.833,290.5 372.5,290.5C 372.881,254.501 373.214,218.501 373.5,182.5 Z"/></g>
<g><path style="opacity:1" fill="#feb09e" d="M 404.5,182.5 C 414.833,182.5 425.167,182.5 435.5,182.5C 435.666,191.173 435.5,199.84 435,208.5C 433.789,216.242 430.956,223.242 426.5,229.5C 424.5,230.833 422.833,232.5 421.5,234.5C 409.219,244.26 395.553,246.927 380.5,242.5C 380.389,241.883 380.056,241.383 379.5,241C 392.815,234.55 400.982,224.05 404,209.5C 404.5,200.506 404.666,191.506 404.5,182.5 Z"/></g>
<g><path style="opacity:1" fill="#f9eeec" d="M 211.5,218.5 C 218.175,218.334 224.842,218.5 231.5,219C 238.406,224.146 238.073,228.813 230.5,233C 224.5,233.667 218.5,233.667 212.5,233C 206.318,228.478 205.985,223.644 211.5,218.5 Z"/></g>
<g><path style="opacity:1" fill="#fda95c" d="M 70.5,230.5 C 75.5111,230.334 80.5111,230.501 85.5,231C 90.0351,235.764 95.3685,239.264 101.5,241.5C 114.178,246.164 126.511,245.164 138.5,238.5C 138.5,255.833 138.5,273.167 138.5,290.5C 137.509,296.979 137.176,303.646 137.5,310.5C 109.167,310.5 80.8333,310.5 52.5,310.5C 47.0131,309.187 43.1798,305.853 41,300.5C 40.3333,286.5 40.3333,272.5 41,258.5C 45.1993,243.132 55.0326,233.799 70.5,230.5 Z"/></g>
<g><path style="opacity:1" fill="#60b7fe" d="M 426.5,229.5 C 448.945,227.618 463.445,237.284 470,258.5C 470.667,272.5 470.667,286.5 470,300.5C 468.221,304.612 465.388,307.778 461.5,310C 450.839,310.5 440.172,310.667 429.5,310.5C 433.785,308.378 436.952,305.045 439,300.5C 439.667,286.833 439.667,273.167 439,259.5C 437.086,248.312 431.253,239.979 421.5,234.5C 422.833,232.5 424.5,230.833 426.5,229.5 Z"/></g>
<g><path style="opacity:1" fill="#8ac8fd" d="M 421.5,234.5 C 431.253,239.979 437.086,248.312 439,259.5C 439.667,273.167 439.667,286.833 439,300.5C 436.952,305.045 433.785,308.378 429.5,310.5C 410.833,310.5 392.167,310.5 373.5,310.5C 373.5,303.833 373.5,297.167 373.5,290.5C 373.333,273.497 373.5,256.497 374,239.5C 375.993,240.914 378.16,241.914 380.5,242.5C 395.553,246.927 409.219,244.26 421.5,234.5 Z"/></g>
<g><path style="opacity:1" fill="#f9f0ec" d="M 64.5,272.5 C 71.5079,272.334 78.5079,272.5 85.5,273C 91.3037,278.641 90.6371,283.308 83.5,287C 77.8333,287.667 72.1667,287.667 66.5,287C 59.4516,282.987 58.7849,278.154 64.5,272.5 Z"/></g>
<g><path style="opacity:1" fill="#f8f2f0" d="M 138.5,290.5 C 206.5,290.5 274.5,290.5 342.5,290.5C 342.667,323.835 342.5,357.168 342,390.5C 340.247,401.252 334.08,407.752 323.5,410C 308.17,410.5 292.837,410.667 277.5,410.5C 252.833,410.5 228.167,410.5 203.5,410.5C 187.138,410.773 170.805,410.44 154.5,409.5C 146.94,407.608 141.94,402.941 139.5,395.5C 138.877,379.359 138.211,363.359 137.5,347.5C 137.5,335.5 137.5,323.5 137.5,311.5C 108.995,311.831 80.6618,311.498 52.5,310.5C 80.8333,310.5 109.167,310.5 137.5,310.5C 137.176,303.646 137.509,296.979 138.5,290.5 Z"/></g>
<g><path style="opacity:1" fill="#f2e9e5" d="M 342.5,290.5 C 352.5,290.5 362.5,290.5 372.5,290.5C 372.833,290.5 373.167,290.5 373.5,290.5C 373.5,297.167 373.5,303.833 373.5,310.5C 373.5,322.833 373.5,335.167 373.5,347.5C 409.167,347.5 444.833,347.5 480.5,347.5C 480.667,381.502 480.5,415.502 480,449.5C 477.317,458.682 471.483,464.682 462.5,467.5C 406.166,467.667 349.832,467.5 293.5,467C 285.01,465.009 279.677,459.842 277.5,451.5C 277.5,437.833 277.5,424.167 277.5,410.5C 292.837,410.667 308.17,410.5 323.5,410C 334.08,407.752 340.247,401.252 342,390.5C 342.5,357.168 342.667,323.835 342.5,290.5 Z"/></g>
<g><path style="opacity:1" fill="#7ea2b2" d="M 202.5,312.5 C 216.504,312.333 230.504,312.5 244.5,313C 251.167,317.667 251.167,322.333 244.5,327C 230.833,327.667 217.167,327.667 203.5,327C 197.292,322.58 196.958,317.747 202.5,312.5 Z"/></g>
<g><path style="opacity:1" fill="#7ea2b2" d="M 202.5,340.5 C 237.835,340.333 273.168,340.5 308.5,341C 313.986,346.081 313.653,350.748 307.5,355C 272.833,355.667 238.167,355.667 203.5,355C 197.292,350.58 196.958,345.747 202.5,340.5 Z"/></g>
<g><path style="opacity:1" fill="#f2e9e5" d="M -0.5,347.5 C 45.5,347.5 91.5,347.5 137.5,347.5C 138.211,363.359 138.877,379.359 139.5,395.5C 114.498,395.333 89.4978,395.5 64.5,396C 61.3171,397.018 59.9838,399.185 60.5,402.5C 60.1191,405.325 61.1191,407.491 63.5,409C 78.9108,410.152 94.4108,410.652 110,410.5C 125.004,410.5 139.837,410.167 154.5,409.5C 170.805,410.44 187.138,410.773 203.5,410.5C 203.667,423.504 203.5,436.504 203,449.5C 200.997,457.502 196.164,463.002 188.5,466C 198.161,466.5 207.828,466.666 217.5,466.5C 150.668,467.665 83.6679,467.832 16.5,467C 8.08973,464.753 2.42306,459.586 -0.5,451.5C -0.5,416.833 -0.5,382.167 -0.5,347.5 Z"/></g>
<g><path style="opacity:1" fill="#eee2dc" d="M 480.5,347.5 C 490.833,347.5 501.167,347.5 511.5,347.5C 511.5,382.167 511.5,416.833 511.5,451.5C 509.169,458.004 504.836,462.838 498.5,466C 486.562,467.415 474.562,467.915 462.5,467.5C 471.483,464.682 477.317,458.682 480,449.5C 480.5,415.502 480.667,381.502 480.5,347.5 Z"/></g>
<g><path style="opacity:1" fill="#7ea2b2" d="M 64.5,367.5 C 74.1724,367.334 83.8391,367.5 93.5,368C 100.167,372.667 100.167,377.333 93.5,382C 83.8333,382.667 74.1667,382.667 64.5,382C 59.2353,377.076 59.2353,372.242 64.5,367.5 Z"/></g>
<g><path style="opacity:1" fill="#7da2b1" d="M 373.5,367.5 C 385.505,367.333 397.505,367.5 409.5,368C 416.406,373.146 416.073,377.813 408.5,382C 396.838,382.5 385.171,382.667 373.5,382.5C 373.5,377.5 373.5,372.5 373.5,367.5 Z"/></g>
<g><path style="opacity:1" fill="#7fa3b2" d="M 202.5,368.5 C 237.835,368.333 273.168,368.5 308.5,369C 314.241,374.558 313.574,379.225 306.5,383C 272.5,383.667 238.5,383.667 204.5,383C 197.37,379.053 196.703,374.22 202.5,368.5 Z"/></g>
<g><path style="opacity:1" fill="#7fa2b2" d="M 139.5,395.5 C 141.94,402.941 146.94,407.608 154.5,409.5C 139.837,410.167 125.004,410.5 110,410.5C 94.4108,410.652 78.9108,410.152 63.5,409C 61.1191,407.491 60.1191,405.325 60.5,402.5C 59.9838,399.185 61.3171,397.018 64.5,396C 89.4978,395.5 114.498,395.333 139.5,395.5 Z"/></g>
<g><path style="opacity:1" fill="#7fa2b2" d="M 371.5,395.5 C 396.502,395.333 421.502,395.5 446.5,396C 449.683,397.018 451.016,399.185 450.5,402.5C 450.664,406.177 448.997,408.677 445.5,410C 415.833,410.667 386.167,410.667 356.5,410C 363.984,407.682 368.984,402.849 371.5,395.5 Z"/></g>
<g><path style="opacity:1" fill="#eee2dc" d="M 203.5,410.5 C 228.167,410.5 252.833,410.5 277.5,410.5C 277.5,424.167 277.5,437.833 277.5,451.5C 276.504,438.344 276.171,425.01 276.5,411.5C 262.5,411.5 248.5,411.5 234.5,411.5C 234.667,424.837 234.5,438.171 234,451.5C 231.474,459.863 225.974,464.863 217.5,466.5C 207.828,466.666 198.161,466.5 188.5,466C 196.164,463.002 200.997,457.502 203,449.5C 203.5,436.504 203.667,423.504 203.5,410.5 Z"/></g>
<g><path style="opacity:1" fill="#7fa3b2" d="M 63.5,423.5 C 99.1682,423.333 134.835,423.5 170.5,424C 173.886,427.373 174.386,431.206 172,435.5C 171.097,436.701 169.931,437.535 168.5,438C 134.167,438.667 99.8333,438.667 65.5,438C 60.7762,435.565 59.2762,431.731 61,426.5C 62.045,425.627 62.8783,424.627 63.5,423.5 Z"/></g>
<g><path style="opacity:1" fill="#7fa3b2" d="M 340.5,423.5 C 376.168,423.333 411.835,423.5 447.5,424C 450.394,426.909 451.227,430.409 450,434.5C 448.786,436.049 447.286,437.215 445.5,438C 411.167,438.667 376.833,438.667 342.5,438C 337.931,435.459 336.431,431.625 338,426.5C 339.045,425.627 339.878,424.627 340.5,423.5 Z"/></g>
</svg>
