<?xml version="1.0" encoding="UTF-8"?>
<!DOCTYPE svg PUBLIC "-//W3C//DTD SVG 1.1//EN" "http://www.w3.org/Graphics/SVG/1.1/DTD/svg11.dtd">
<svg xmlns="http://www.w3.org/2000/svg" version="1.1" width="66px" height="66px" style="shape-rendering:geometricPrecision; text-rendering:geometricPrecision; image-rendering:optimizeQuality; fill-rule:evenodd; clip-rule:evenodd" xmlns:xlink="http://www.w3.org/1999/xlink">
<g><path style="opacity:1" fill="#5e5a81" d="M 60.5,13.5 C 59.1667,12.8333 57.8333,12.1667 56.5,11.5C 56.9804,8.31479 56.3137,5.48146 54.5,3C 45.5,2.33333 36.5,2.33333 27.5,3C 26.6195,3.7083 25.9528,4.54163 25.5,5.5C 25.1502,12.3954 24.1502,19.0621 22.5,25.5C 22.3337,18.4921 22.5004,11.4921 23,4.5C 23.5,2.66667 24.6667,1.5 26.5,1C 36.5,0.333333 46.5,0.333333 56.5,1C 58.3333,1.5 59.5,2.66667 60,4.5C 60.498,7.48162 60.6646,10.4816 60.5,13.5 Z"/></g>
<g><path style="opacity:0.861" fill="#1a1335" d="M 16.5,12.5 C 16.5,11.5 16.5,10.5 16.5,9.5C 13.8333,9.5 11.1667,9.5 8.5,9.5C 8.53235,11.6188 7.53235,12.9522 5.5,13.5C 2.89231,7.43589 4.89231,4.10256 11.5,3.5C 18.2416,3.99084 19.9083,6.99084 16.5,12.5 Z"/></g>
<g><path style="opacity:1" fill="#faf9f9" d="M 56.5,11.5 C 48.9918,15.6897 48.9918,20.3563 56.5,25.5C 56.6665,36.8382 56.4999,48.1716 56,59.5C 53.9592,60.4231 51.7925,60.7564 49.5,60.5C 49.5,53.1667 49.5,45.8333 49.5,38.5C 50.9778,38.762 52.3112,38.4287 53.5,37.5C 45.1667,36.1667 36.8333,36.1667 28.5,37.5C 28.6236,38.1067 28.9569,38.44 29.5,38.5C 29.5,45.1667 29.5,51.8333 29.5,58.5C 28.209,58.2627 27.209,58.596 26.5,59.5C 25.8333,59.5 25.5,59.1667 25.5,58.5C 25.3335,49.1607 25.5002,39.8274 26,30.5C 27.563,29.2748 28.7297,27.7748 29.5,26C 28.9931,23.6587 27.8265,23.1587 26,24.5C 25.5005,18.1754 25.3338,11.8421 25.5,5.5C 25.9528,4.54163 26.6195,3.7083 27.5,3C 36.5,2.33333 45.5,2.33333 54.5,3C 56.3137,5.48146 56.9804,8.31479 56.5,11.5 Z"/></g>
<g><path style="opacity:1" fill="#5b5673" d="M 27.5,4.5 C 29.8333,4.5 32.1667,4.5 34.5,4.5C 34.5,5.83333 34.5,7.16667 34.5,8.5C 32.1432,8.66331 29.8098,8.49665 27.5,8C 26.3157,6.85453 26.3157,5.68787 27.5,4.5 Z"/></g>
<g><path style="opacity:0.942" fill="#f2b7aa" d="M 16.5,12.5 C 17.0907,15.6753 16.0907,18.0087 13.5,19.5C 11.8679,23.0917 9.86795,23.0917 7.5,19.5C 7.7475,17.1417 7.08083,15.1417 5.5,13.5C 7.53235,12.9522 8.53235,11.6188 8.5,9.5C 11.1667,9.5 13.8333,9.5 16.5,9.5C 16.5,10.5 16.5,11.5 16.5,12.5 Z"/></g>
<g><path style="opacity:1" fill="#4d8ef4" d="M 37.5,11.5 C 43.3645,9.95465 46.6978,12.1213 47.5,18C 45.0293,24.7451 41.0293,25.9118 35.5,21.5C 33.8097,17.6309 34.4764,14.2975 37.5,11.5 Z"/></g>
<g><path style="opacity:1" fill="#eef4fe" d="M 38.5,12.5 C 44.7637,12.0882 46.7637,14.7549 44.5,20.5C 41.593,19.7525 38.7597,19.4192 36,19.5C 35.6826,16.793 36.5159,14.4597 38.5,12.5 Z"/></g>
<g><path style="opacity:1" fill="#56cb70" d="M 56.5,11.5 C 57.8333,12.1667 59.1667,12.8333 60.5,13.5C 61.9217,13.7086 63.255,14.2086 64.5,15C 63.5343,17.7685 62.201,20.2685 60.5,22.5C 59.5,22.8333 58.8333,23.5 58.5,24.5C 57.8333,24.8333 57.1667,25.1667 56.5,25.5C 48.9918,20.3563 48.9918,15.6897 56.5,11.5 Z"/></g>
<g><path style="opacity:1" fill="#2a7bf2" d="M 39.5,14.5 C 40.5,14.5 41.5,14.5 42.5,14.5C 42.7778,16.3464 42.1112,17.6798 40.5,18.5C 39.5713,17.3112 39.238,15.9778 39.5,14.5 Z"/></g>
<g><path style="opacity:1" fill="#e1f5e6" d="M 57.5,16.5 C 58.2389,16.369 58.9056,16.5357 59.5,17C 58.3333,18.1667 57.1667,19.3333 56,20.5C 55.5,20 55,19.5 54.5,19C 55.9423,18.6232 56.9423,17.7899 57.5,16.5 Z"/></g>
<g><path style="opacity:0.969" fill="#8cc0f4" d="M 25.5,5.5 C 25.3338,11.8421 25.5005,18.1754 26,24.5C 27.8265,23.1587 28.9931,23.6587 29.5,26C 28.7297,27.7748 27.563,29.2748 26,30.5C 25.5002,39.8274 25.3335,49.1607 25.5,58.5C 24.6704,50.0097 24.1704,41.343 24,32.5C 23.2828,33.0442 22.7828,33.7109 22.5,34.5C 21.1667,34.5 19.8333,34.5 18.5,34.5C 18.5,37.1667 18.5,39.8333 18.5,42.5C 16.8212,42.2852 15.8212,42.9519 15.5,44.5C 12.8333,43.8333 10.1667,43.1667 7.5,42.5C 5.28298,41.6314 2.94965,41.298 0.5,41.5C 0.333794,35.1579 0.500461,28.8246 1,22.5C 2.46529,20.085 4.63196,19.085 7.5,19.5C 9.86795,23.0917 11.8679,23.0917 13.5,19.5C 17.5897,19.9319 20.5897,21.9319 22.5,25.5C 24.1502,19.0621 25.1502,12.3954 25.5,5.5 Z"/></g>
<g><path style="opacity:0.682" fill="#3d3960" d="M 60.5,22.5 C 60.6665,34.8378 60.4999,47.1712 60,59.5C 59.4115,61.8633 57.9115,62.8633 55.5,62.5C 56.1217,61.3734 56.955,60.3734 58,59.5C 58.4999,47.8381 58.6665,36.1714 58.5,24.5C 58.8333,23.5 59.5,22.8333 60.5,22.5 Z"/></g>
<g><path style="opacity:1" fill="#726e90" d="M 58.5,24.5 C 58.6665,36.1714 58.4999,47.8381 58,59.5C 56.955,60.3734 56.1217,61.3734 55.5,62.5C 53.5,62.5 51.5,62.5 49.5,62.5C 48.4937,62.0623 48.4937,61.3957 49.5,60.5C 51.7925,60.7564 53.9592,60.4231 56,59.5C 56.4999,48.1716 56.6665,36.8382 56.5,25.5C 57.1667,25.1667 57.8333,24.8333 58.5,24.5 Z"/></g>
<g><path style="opacity:1" fill="#ff4946" d="M 34.5,26.5 C 38.8461,26.3343 43.1794,26.501 47.5,27C 50.1667,29.3333 50.1667,31.6667 47.5,34C 43.1667,34.6667 38.8333,34.6667 34.5,34C 31.8803,31.4405 31.8803,28.9405 34.5,26.5 Z"/></g>
<g><path style="opacity:1" fill="#ffa4a2" d="M 35.5,28.5 C 39.4363,28.8685 43.103,29.0352 46.5,29C 45.2986,29.9025 44.4652,31.0692 44,32.5C 43.3333,29.8333 42.6667,29.8333 42,32.5C 41.3333,31.1667 40.6667,31.1667 40,32.5C 39.6667,31.8333 39.3333,31.1667 39,30.5C 36.4475,33.1941 35.2808,32.5274 35.5,28.5 Z"/></g>
<g><path style="opacity:0.592" fill="#666087" d="M 25.5,58.5 C 25.5,59.1667 25.8333,59.5 26.5,59.5C 26.5,60.5 26.5,61.5 26.5,62.5C 24.8267,61.657 23.66,60.3237 23,58.5C 22.5003,50.5069 22.3336,42.5069 22.5,34.5C 22.7828,33.7109 23.2828,33.0442 24,32.5C 24.1704,41.343 24.6704,50.0097 25.5,58.5 Z"/></g>
<g><path style="opacity:1" fill="#a3a6bc" d="M 49.5,38.5 C 42.8333,37.1667 36.1667,37.1667 29.5,38.5C 28.9569,38.44 28.6236,38.1067 28.5,37.5C 36.8333,36.1667 45.1667,36.1667 53.5,37.5C 52.3112,38.4287 50.9778,38.762 49.5,38.5 Z"/></g>
<g><path style="opacity:0.999" fill="#ceddef" d="M 49.5,38.5 C 49.5,45.8333 49.5,53.1667 49.5,60.5C 48.4937,61.3957 48.4937,62.0623 49.5,62.5C 49.0825,63.2216 48.4158,63.7216 47.5,64C 40.8333,64.6667 34.1667,64.6667 27.5,64C 26.944,63.6174 26.6107,63.1174 26.5,62.5C 26.5,61.5 26.5,60.5 26.5,59.5C 27.209,58.596 28.209,58.2627 29.5,58.5C 29.5,51.8333 29.5,45.1667 29.5,38.5C 36.1667,37.1667 42.8333,37.1667 49.5,38.5 Z"/></g>
<g><path style="opacity:0.945" fill="#f6b8a8" d="M 0.5,41.5 C 2.94965,41.298 5.28298,41.6314 7.5,42.5C 6.26511,44.9571 4.26511,46.2905 1.5,46.5C 0.699293,44.9582 0.36596,43.2915 0.5,41.5 Z"/></g>
<g><path style="opacity:1" fill="#605c82" d="M 7.5,42.5 C 10.1667,43.1667 12.8333,43.8333 15.5,44.5C 14.3129,45.5336 13.4796,46.867 13,48.5C 12.5007,53.4889 12.3341,58.4889 12.5,63.5C 8.83333,63.5 5.16667,63.5 1.5,63.5C 1.5,57.8333 1.5,52.1667 1.5,46.5C 4.26511,46.2905 6.26511,44.9571 7.5,42.5 Z"/></g>
<g><path style="opacity:0.867" fill="#3d3960" d="M 18.5,42.5 C 18.5,49.5 18.5,56.5 18.5,63.5C 16.5,63.5 14.5,63.5 12.5,63.5C 12.3341,58.4889 12.5007,53.4889 13,48.5C 13.4796,46.867 14.3129,45.5336 15.5,44.5C 15.8212,42.9519 16.8212,42.2852 18.5,42.5 Z"/></g>
</svg>
