<?xml version="1.0" encoding="utf-8"?>
<!-- Generator: Adobe Illustrator 28.2.0, SVG Export Plug-In . SVG Version: 6.00 Build 0)  -->
<svg version="1.1" id="Capa_1" xmlns="http://www.w3.org/2000/svg" xmlns:xlink="http://www.w3.org/1999/xlink" x="0px" y="0px"
	 viewBox="0 0 200 200" style="enable-background:new 0 0 200 200;" xml:space="preserve">
<style type="text/css">
	.st0{fill:none;}
	.st1{fill:#0B2E44;}
</style>
<g>
	<path class="st0" d="M100,149.51c6.35,0,11.66-4.47,12.99-10.43H87.01C88.34,145.04,93.65,149.51,100,149.51z"/>
	<path class="st1" d="M83.66,133.17c-0.31,0-0.61,0.06-0.9,0.15h1.79C84.27,133.23,83.97,133.17,83.66,133.17z"/>
	<path class="st1" d="M100,149.51c-6.35,0-11.66-4.47-12.99-10.43h-6.15c1.4,9.32,9.43,16.49,19.14,16.49s17.74-7.17,19.14-16.49
		h-6.15C111.66,145.04,106.35,149.51,100,149.51z"/>
	<path class="st1" d="M116.34,133.17c-0.31,0-0.61,0.06-0.9,0.15h1.79C116.95,133.23,116.65,133.17,116.34,133.17z"/>
	<path class="st1" d="M150.35,124.43L150.35,124.43c-0.09-0.08-0.2-0.16-0.32-0.24l-0.09-0.07c-3.95-3.46-7.08-7.59-9.31-12.3
		c-0.68-1.43-2.4-2.05-3.84-1.38c-0.7,0.33-1.22,0.91-1.48,1.64c-0.26,0.72-0.22,1.5,0.11,2.2c2.64,5.59,6.38,10.48,11.14,14.53
		c0.06,0.05,0.11,0.09,0.17,0.13l0.15,0.12l0.07,0.09c0.37,0.45,0.57,1.01,0.57,1.61c0,1.41-1.15,2.56-2.57,2.56h-27.7h-1.79H84.55
		h-1.79h-27.7c-1.41,0-2.56-1.15-2.56-2.56c0-0.74,0.3-1.27,0.55-1.59L53.2,129l0.11-0.08c0.04-0.03,0.07-0.05,0.11-0.08l0.06-0.05
		c9.76-8.31,15.36-20.42,15.36-33.22v-15.2c0-14.5,9.82-26.94,23.88-30.26c1.54-0.36,2.5-1.92,2.14-3.47
		c-0.18-0.75-0.64-1.39-1.29-1.79c-0.46-0.28-0.98-0.43-1.51-0.43c-0.22,0-0.45,0.03-0.67,0.08c-16.67,3.94-28.31,18.69-28.31,35.87
		v15.2c0,10.93-4.73,21.32-12.98,28.52l-0.12,0.09c-0.13,0.08-0.23,0.16-0.32,0.23c-1.86,1.59-2.92,3.9-2.92,6.34
		c0,4.59,3.74,8.33,8.33,8.33h25.8h6.15h25.97h6.15h25.8c4.59,0,8.33-3.74,8.33-8.33C153.27,128.32,152.2,126.01,150.35,124.43z"/>
	<path class="st1" d="M49.65,124.43L49.65,124.43c0.09-0.08,0.2-0.16,0.32-0.24l0.09-0.07c3.95-3.46,7.08-7.59,9.31-12.3
		c0.68-1.43,2.4-2.05,3.84-1.38c0.7,0.33,1.22,0.91,1.48,1.64c0.26,0.72,0.22,1.5-0.11,2.2c-2.64,5.59-6.38,10.48-11.14,14.53
		c-0.06,0.05-0.11,0.09-0.17,0.13l-0.15,0.12l-0.07,0.09c-0.37,0.45-0.57,1.01-0.57,1.61c0,1.41,1.15,2.56,2.57,2.56h27.7h1.79
		h30.89h1.79h27.7c1.41,0,2.56-1.15,2.56-2.56c0-0.74-0.3-1.27-0.55-1.59L146.8,129l-0.11-0.08c-0.04-0.03-0.07-0.05-0.11-0.08
		l-0.06-0.05c-9.76-8.31-15.36-20.42-15.36-33.22v-15.2c0-14.5-9.82-26.94-23.88-30.26c-1.54-0.36-2.5-1.92-2.14-3.47
		c0.18-0.75,0.64-1.39,1.29-1.79c0.46-0.28,0.98-0.43,1.51-0.43c0.22,0,0.45,0.03,0.67,0.08c16.67,3.94,28.31,18.69,28.31,35.87
		v15.2c0,10.93,4.73,21.32,12.98,28.52l0.12,0.09c0.13,0.08,0.23,0.16,0.32,0.23c1.86,1.59,2.92,3.9,2.92,6.34
		c0,4.59-3.74,8.33-8.33,8.33h-25.8h-6.15H87.02h-6.15h-25.8c-4.59,0-8.33-3.74-8.33-8.33C46.73,128.32,47.8,126.01,49.65,124.43z"
		/>
</g>
<text transform="matrix(1 0 0 1 -874.5714 379.7144)" style="font-family:'ClearSans-Bold'; font-size:12px;">•</text>
</svg>
