<?xml version="1.0" encoding="UTF-8"?>
<!DOCTYPE svg PUBLIC "-//W3C//DTD SVG 1.1//EN" "http://www.w3.org/Graphics/SVG/1.1/DTD/svg11.dtd">
<svg xmlns="http://www.w3.org/2000/svg" version="1.1" width="512px" height="512px" style="shape-rendering:geometricPrecision; text-rendering:geometricPrecision; image-rendering:optimizeQuality; fill-rule:evenodd; clip-rule:evenodd" xmlns:xlink="http://www.w3.org/1999/xlink">
<g><path style="opacity:0.991" fill="#ffa222" d="M 245.5,-0.5 C 248.833,-0.5 252.167,-0.5 255.5,-0.5C 255.5,20.8333 255.5,42.1667 255.5,63.5C 241.184,63.5535 227.184,65.5535 213.5,69.5C 203.573,47.1572 207.24,27.3239 224.5,10C 231.045,5.39414 238.045,1.89414 245.5,-0.5 Z"/></g>
<g><path style="opacity:1" fill="#ff7240" d="M 255.5,-0.5 C 258.833,-0.5 262.167,-0.5 265.5,-0.5C 288.809,6.40152 301.475,22.0682 303.5,46.5C 303.21,54.6603 301.21,62.327 297.5,69.5C 283.764,65.7666 269.764,63.7666 255.5,63.5C 255.5,42.1667 255.5,20.8333 255.5,-0.5 Z"/></g>
<g><path style="opacity:0.997" fill="#ffd637" d="M 255.5,63.5 C 255.5,159.833 255.5,256.167 255.5,352.5C 197.833,352.5 140.167,352.5 82.5,352.5C 91.5583,349.935 97.0583,343.935 99,334.5C 104.594,283.825 110.26,233.158 116,182.5C 126.898,126.108 159.398,88.4415 213.5,69.5C 227.184,65.5535 241.184,63.5535 255.5,63.5 Z"/></g>
<g><path style="opacity:1" fill="#ffa222" d="M 255.5,63.5 C 269.764,63.7666 283.764,65.7666 297.5,69.5C 351.633,88.469 384.133,126.136 395,182.5C 400.74,233.158 406.406,283.825 412,334.5C 413.942,343.935 419.442,349.935 428.5,352.5C 370.833,352.5 313.167,352.5 255.5,352.5C 255.5,256.167 255.5,159.833 255.5,63.5 Z"/></g>
<g><path style="opacity:0.997" fill="#ffa222" d="M 82.5,352.5 C 140.167,352.5 197.833,352.5 255.5,352.5C 255.5,384.167 255.5,415.833 255.5,447.5C 229.5,447.5 203.5,447.5 177.5,447.5C 141.832,447.667 106.165,447.5 70.5,447C 45.8216,440.991 32.8216,425.324 31.5,400C 32.2853,376.444 43.952,361.111 66.5,354C 71.7674,352.809 77.1007,352.309 82.5,352.5 Z"/></g>
<g><path style="opacity:1" fill="#ff7240" d="M 255.5,352.5 C 313.167,352.5 370.833,352.5 428.5,352.5C 448.256,351.96 463.423,359.96 474,376.5C 485.631,403.489 479.464,425.323 455.5,442C 450.768,444.466 445.768,446.133 440.5,447C 404.835,447.5 369.168,447.667 333.5,447.5C 307.5,447.5 281.5,447.5 255.5,447.5C 255.5,415.833 255.5,384.167 255.5,352.5 Z"/></g>
<g><path style="opacity:0.989" fill="#ff7241" d="M 177.5,447.5 C 203.5,447.5 229.5,447.5 255.5,447.5C 255.5,468.833 255.5,490.167 255.5,511.5C 251.167,511.5 246.833,511.5 242.5,511.5C 207.635,503.635 185.968,482.302 177.5,447.5 Z"/></g>
<g><path style="opacity:1" fill="#ff4f59" d="M 255.5,447.5 C 281.5,447.5 307.5,447.5 333.5,447.5C 325.032,482.302 303.365,503.635 268.5,511.5C 264.167,511.5 259.833,511.5 255.5,511.5C 255.5,490.167 255.5,468.833 255.5,447.5 Z"/></g>
</svg>
