<?xml version="1.0" encoding="utf-8"?>
<!-- Generator: Adobe Illustrator 28.2.0, SVG Export Plug-In . SVG Version: 6.00 Build 0)  -->
<svg version="1.1" id="Capa_1" xmlns="http://www.w3.org/2000/svg" xmlns:xlink="http://www.w3.org/1999/xlink" x="0px" y="0px"
	 viewBox="0 0 200 200" style="enable-background:new 0 0 200 200;" xml:space="preserve">
<style type="text/css">
	.st0{fill:#0B2E44;}
	.st1{fill:#F3972F;}
</style>
<text transform="matrix(1 0 0 1 -874.5714 379.7144)" style="font-family:'ClearSans-Bold'; font-size:12px;">•</text>
<g>
	<path class="st0" d="M63.8,50.1c1.2,2.3,1.2,4.7,1.2,7c0,28.5,0,57,0,85.5c0,1.2,0.4,2,1.4,2.6c2.1,1.3,4.2,2.7,6.2,4.1
		c0.8,0.6,1.5,0.6,2.4,0.2c3.3-1.7,6.6-3.3,9.9-5c2.7-1.4,5.3-1.3,7.8,0.5c2.1,1.4,4.2,2.8,6.3,4.2c0.9,0.6,1.5,0.6,2.3,0
		c2.1-1.5,4.3-2.9,6.5-4.3c2.3-1.6,4.7-1.7,7.3-0.5c3.4,1.7,6.8,3.4,10.2,5.1c0.8,0.4,1.5,0.4,2.3-0.1c2.2-1.5,4.4-3,6.6-4.4
		c0.7-0.5,1.1-1.1,1.1-2c0-1.3,0-2.7,0-4c0-1.8,1.2-3,2.9-2.9c1.6,0,2.8,1.2,2.8,2.9c0,1.7,0.1,3.4,0,5.1c-0.1,2.2-1.1,4-3,5.3
		c-2.5,1.7-5.1,3.4-7.7,5.1c-2.2,1.5-4.6,1.6-7,0.4c-3.5-1.7-6.9-3.4-10.3-5.2c-0.9-0.5-1.6-0.4-2.4,0.2c-2.1,1.5-4.2,2.8-6.3,4.2
		c-2.9,1.9-5.4,1.9-8.3,0c-2.2-1.4-4.3-2.9-6.5-4.3c-0.7-0.5-1.3-0.5-2.1-0.1c-3.4,1.7-6.8,3.4-10.1,5.1c-2.7,1.4-5.2,1.2-7.7-0.5
		c-2.2-1.6-4.5-3.1-6.8-4.5c-2.4-1.5-3.5-3.7-3.5-6.5c0-12.9,0-25.8,0-38.7c0-1.1-0.3-1.3-1.3-1.3c-2,0-4,0.2-6-0.3
		c-4.7-1.2-7.9-5.3-7.9-10.2c0-12.4,0-24.8,0-37.2c0-6.6,4.4-11,11-11c23.7,0,47.4,0,71.1,0c1.9,0,3.7,0.3,5.4,0.9
		c5.5,2.1,9.1,7.3,9.2,13.1c0,1.3,0,2.5,0,3.8c0,1.7-1.3,3-2.9,3c-1.6,0-2.7-1.3-2.8-3c0-1.6,0.1-3.2-0.1-4.7
		c-0.6-4.4-4.1-7.4-8.7-7.4c-11.6,0-23.2,0-34.8,0c-8.7,0-17.5,0-26.2,0C64.9,50.1,64.4,50.1,63.8,50.1z M59.2,75.7
		c0-6.9,0-13.9,0-20.8c0-2.7-2.1-4.8-4.7-4.8c-2.6,0-4.7,2-4.7,4.6c0,12.7,0,25.4,0,38.1c0,2.6,2,4.5,4.6,4.6c1.3,0,2.5-0.1,3.8,0
		c0.9,0.1,1.1-0.2,1.1-1.1C59.2,89.5,59.2,82.6,59.2,75.7z"/>
	<path class="st1" d="M122.8,67.1c18.3,0,33.2,14.9,33.2,33.2c0,18.3-14.9,33.2-33.3,33.2c-18.3,0-33.1-14.9-33.1-33.2
		C89.6,82,104.5,67.1,122.8,67.1z M122.7,127.8c15.2,0,27.5-12.3,27.6-27.5c0-15.2-12.3-27.5-27.5-27.5c-15.1,0-27.5,12.3-27.5,27.4
		C95.2,115.4,107.5,127.8,122.7,127.8z"/>
	<path class="st0" d="M85,59.5c2.7,0,5.4,0,8.2,0c1.8,0,3,1.1,3.1,2.7c0,1.6-1.2,2.9-3,2.9c-5.6,0-11.1,0-16.7,0
		c-1.8,0-3.1-1.3-3-2.9c0.1-1.6,1.3-2.7,3.1-2.7C79.4,59.5,82.2,59.5,85,59.5z"/>
	<path class="st0" d="M80.9,74.9c-1.5,0-3,0-4.5,0c-1.7,0-3-1.3-3-2.9c0-1.6,1.2-2.8,2.9-2.8c3.1,0,6.2,0,9.3,0
		c1.7,0,2.9,1.2,2.9,2.8c0,1.6-1.2,2.8-3,2.9C84.1,75,82.5,74.9,80.9,74.9z"/>
	<path class="st0" d="M87.7,130.7c-1.6,0-2.9-1.2-2.9-2.8c0-1.6,1.3-2.9,2.9-2.9c1.5,0,2.8,1.2,2.8,2.8
		C90.6,129.4,89.3,130.7,87.7,130.7z"/>
	<path class="st1" d="M78.1,130.6c-1.5,0-2.7-1.2-2.7-2.7c0-1.5,1.3-2.8,2.8-2.7c1.5,0,2.7,1.3,2.7,2.7
		C81,129.4,79.7,130.6,78.1,130.6z"/>
	<path class="st1" d="M115.6,107.6c1.5-0.1,2.3,0.8,2.9,2c1.4,2.6,4.2,3.5,6.6,2.1c1.8-1,2.7-3.1,2.3-5c-0.5-2.1-2.1-3.6-4.3-3.8
		c-2.8-0.2-5.4-1.1-7.5-3c-5.3-4.8-3.9-13.8,2.8-16.8c1.2-0.6,1.6-1.1,1.6-2.5c-0.1-2.4,2.3-3.8,4.2-2.6c1,0.6,1.5,1.5,1.4,2.6
		c-0.2,1.4,0.4,2,1.7,2.5c2.4,1,4.2,2.8,5.3,5.2c0.8,1.6,0.3,3.1-1,3.9c-1.5,0.8-3.4,0.3-4.2-1.2c-0.7-1.3-1.5-2.4-3-2.9
		c-1.9-0.6-3.6-0.3-5,1.2c-1.4,1.4-1.7,3.2-1,5c0.8,1.9,2.3,2.9,4.3,3c3.3,0.1,6,1.3,8.1,3.8c4.6,5.6,2.4,13.9-4.4,16.4
		c-0.6,0.2-0.9,0.5-0.8,1.2c0.1,0.5,0,1.1,0,1.7c-0.2,1.5-1.5,2.6-2.9,2.6c-1.4-0.1-2.8-1.2-2.7-2.6c0.2-2-0.6-2.7-2.4-3.4
		c-2.1-0.8-3.7-2.5-4.8-4.6C111.6,109.9,113,107.6,115.6,107.6z"/>
</g>
</svg>
