<?xml version="1.0" encoding="utf-8"?>
<!-- Generator: Adobe Illustrator 28.2.0, SVG Export Plug-In . SVG Version: 6.00 Build 0)  -->
<svg version="1.1" id="Capa_1" xmlns="http://www.w3.org/2000/svg" xmlns:xlink="http://www.w3.org/1999/xlink" x="0px" y="0px"
	 viewBox="0 0 200 200" style="enable-background:new 0 0 200 200;" xml:space="preserve">
<style type="text/css">
	.st0{fill:#F3972F;}
	.st1{fill:none;}
	.st2{fill:#0B2E44;}
</style>
<path class="st0" d="M83.7,136.5c0,0,2.6,10.5,3.8,11.2c1.2,0.7,12.8,4.8,12.8,4.8s7.9-2.1,8.2-2.4s9.3-11.7,9.3-11.7l-0.6-1.9H83.7
	z"/>
<g>
	<path class="st1" d="M100,149.5c6.3,0,11.7-4.5,13-10.4H87C88.3,145,93.7,149.5,100,149.5z"/>
	<path class="st2" d="M83.7,133.2c-0.3,0-0.6,0.1-0.9,0.1h1.8C84.3,133.2,84,133.2,83.7,133.2z"/>
	<path class="st2" d="M100,149.5c-6.3,0-11.7-4.5-13-10.4h-6.2c1.4,9.3,9.4,16.5,19.1,16.5s17.7-7.2,19.1-16.5H113
		C111.7,145,106.3,149.5,100,149.5z"/>
	<path class="st2" d="M116.3,133.2c-0.3,0-0.6,0.1-0.9,0.1h1.8C116.9,133.2,116.7,133.2,116.3,133.2z"/>
	<path class="st2" d="M150.4,124.4L150.4,124.4c-0.1-0.1-0.2-0.2-0.3-0.2l-0.1-0.1c-3.9-3.5-7.1-7.6-9.3-12.3
		c-0.7-1.4-2.4-2.1-3.8-1.4c-0.7,0.3-1.2,0.9-1.5,1.6c-0.3,0.7-0.2,1.5,0.1,2.2c2.6,5.6,6.4,10.5,11.1,14.5c0.1,0.1,0.1,0.1,0.2,0.1
		l0.1,0.1l0.1,0.1c0.4,0.4,0.6,1,0.6,1.6c0,1.4-1.1,2.6-2.6,2.6h-27.7h-1.8H84.6h-1.8H55.1c-1.4,0-2.6-1.1-2.6-2.6
		c0-0.7,0.3-1.3,0.5-1.6l0.2-0.2l0.1-0.1c0,0,0.1-0.1,0.1-0.1l0.1-0.1c9.8-8.3,15.4-20.4,15.4-33.2V80.4c0-14.5,9.8-26.9,23.9-30.3
		c1.5-0.4,2.5-1.9,2.1-3.5c-0.2-0.8-0.6-1.4-1.3-1.8c-0.5-0.3-1-0.4-1.5-0.4c-0.2,0-0.4,0-0.7,0.1c-16.7,3.9-28.3,18.7-28.3,35.9
		v15.2c0,10.9-4.7,21.3-13,28.5l-0.1,0.1c-0.1,0.1-0.2,0.2-0.3,0.2c-1.9,1.6-2.9,3.9-2.9,6.3c0,4.6,3.7,8.3,8.3,8.3h25.8H87h26h6.2
		h25.8c4.6,0,8.3-3.7,8.3-8.3C153.3,128.3,152.2,126,150.4,124.4z"/>
	<path class="st2" d="M49.7,124.4L49.7,124.4c0.1-0.1,0.2-0.2,0.3-0.2l0.1-0.1c4-3.5,7.1-7.6,9.3-12.3c0.7-1.4,2.4-2.1,3.8-1.4
		c0.7,0.3,1.2,0.9,1.5,1.6c0.3,0.7,0.2,1.5-0.1,2.2c-2.6,5.6-6.4,10.5-11.1,14.5c-0.1,0.1-0.1,0.1-0.2,0.1l-0.2,0.1l-0.1,0.1
		c-0.4,0.4-0.6,1-0.6,1.6c0,1.4,1.2,2.6,2.6,2.6h27.7h1.8h30.9h1.8h27.7c1.4,0,2.6-1.1,2.6-2.6c0-0.7-0.3-1.3-0.6-1.6l-0.1-0.2
		l-0.1-0.1c0,0-0.1-0.1-0.1-0.1l-0.1-0.1c-9.8-8.3-15.4-20.4-15.4-33.2V80.4c0-14.5-9.8-26.9-23.9-30.3c-1.5-0.4-2.5-1.9-2.1-3.5
		c0.2-0.8,0.6-1.4,1.3-1.8c0.5-0.3,1-0.4,1.5-0.4c0.2,0,0.4,0,0.7,0.1c16.7,3.9,28.3,18.7,28.3,35.9v15.2c0,10.9,4.7,21.3,13,28.5
		l0.1,0.1c0.1,0.1,0.2,0.2,0.3,0.2c1.9,1.6,2.9,3.9,2.9,6.3c0,4.6-3.7,8.3-8.3,8.3h-25.8H113H87h-6.2H55.1c-4.6,0-8.3-3.7-8.3-8.3
		C46.7,128.3,47.8,126,49.7,124.4z"/>
</g>
<text transform="matrix(1 0 0 1 -874.5714 379.7144)" style="font-family:'ClearSans-Bold'; font-size:12px;">•</text>
</svg>
