<?xml version="1.0" encoding="utf-8"?>
<!-- Generator: Adobe Illustrator 28.2.0, SVG Export Plug-In . SVG Version: 6.00 Build 0)  -->
<svg version="1.1" id="Capa_1" xmlns="http://www.w3.org/2000/svg" xmlns:xlink="http://www.w3.org/1999/xlink" x="0px" y="0px"
	 viewBox="0 0 200 200" style="enable-background:new 0 0 200 200;" xml:space="preserve">
<style type="text/css">
	.st0{display:none;fill:#F3972F;}
	.st1{display:none;}
	.st2{display:inline;fill:none;}
	.st3{display:inline;fill:#0B2E44;}
	.st4{fill:#0B2E44;}
	.st5{fill:#F3972F;}
	.st6{display:inline;fill:#F3972F;}
</style>
<path class="st0" d="M254.6,136.5c0,0,2.6,10.5,3.8,11.2c1.2,0.7,12.8,4.8,12.8,4.8s7.9-2.1,8.2-2.4c0.3-0.3,9.3-11.7,9.3-11.7
	l-0.6-1.9L254.6,136.5L254.6,136.5z"/>
<g class="st1">
	<path class="st2" d="M270.9,149.5c6.3,0,11.7-4.5,13-10.4h-26C259.2,145,264.6,149.5,270.9,149.5z"/>
	<path class="st3" d="M254.6,133.2c-0.3,0-0.6,0.1-0.9,0.1h1.8C255.2,133.2,254.9,133.2,254.6,133.2z"/>
	<path class="st3" d="M270.9,149.5c-6.3,0-11.7-4.5-13-10.4h-6.2c1.4,9.3,9.4,16.5,19.1,16.5c9.7,0,17.7-7.2,19.1-16.5h-6
		C282.6,145,277.2,149.5,270.9,149.5z"/>
	<path class="st3" d="M287.2,133.2c-0.3,0-0.6,0.1-0.9,0.1h1.8C287.8,133.2,287.6,133.2,287.2,133.2z"/>
	<path class="st3" d="M321.3,124.4L321.3,124.4c-0.1-0.1-0.2-0.2-0.3-0.2l-0.1-0.1c-3.9-3.5-7.1-7.6-9.3-12.3
		c-0.7-1.4-2.4-2.1-3.8-1.4c-0.7,0.3-1.2,0.9-1.5,1.6c-0.3,0.7-0.2,1.5,0.1,2.2c2.6,5.6,6.4,10.5,11.1,14.5c0.1,0.1,0.1,0.1,0.2,0.1
		l0.1,0.1l0.1,0.1c0.4,0.4,0.6,1,0.6,1.6c0,1.4-1.1,2.6-2.6,2.6h-27.7h-1.8h-30.9h-1.8H226c-1.4,0-2.6-1.1-2.6-2.6
		c0-0.7,0.3-1.3,0.5-1.6l0.2-0.2l0.1-0.1l0.1-0.1l0.1-0.1c9.8-8.3,15.4-20.4,15.4-33.2V80.4c0-14.5,9.8-26.9,23.9-30.3
		c1.5-0.4,2.5-1.9,2.1-3.5c-0.2-0.8-0.6-1.4-1.3-1.8c-0.5-0.3-1-0.4-1.5-0.4c-0.2,0-0.4,0-0.7,0.1C245.6,48.4,234,63.2,234,80.4
		v15.2c0,10.9-4.7,21.3-13,28.5l-0.1,0.1c-0.1,0.1-0.2,0.2-0.3,0.2c-1.9,1.6-2.9,3.9-2.9,6.3c0,4.6,3.7,8.3,8.3,8.3h25.8h6.1h26h6.2
		h25.8c4.6,0,8.3-3.7,8.3-8.3C324.2,128.3,323.1,126,321.3,124.4z"/>
	<path class="st3" d="M220.6,124.4L220.6,124.4c0.1-0.1,0.2-0.2,0.3-0.2l0.1-0.1c4-3.5,7.1-7.6,9.3-12.3c0.7-1.4,2.4-2.1,3.8-1.4
		c0.7,0.3,1.2,0.9,1.5,1.6s0.2,1.5-0.1,2.2c-2.6,5.6-6.4,10.5-11.1,14.5c-0.1,0.1-0.1,0.1-0.2,0.1l-0.2,0.1l-0.1,0.1
		c-0.4,0.4-0.6,1-0.6,1.6c0,1.4,1.2,2.6,2.6,2.6h27.7h1.8h30.9h1.8h27.7c1.4,0,2.6-1.1,2.6-2.6c0-0.7-0.3-1.3-0.6-1.6l-0.1-0.2
		l-0.1-0.1l-0.1-0.1l-0.1-0.1c-9.8-8.3-15.4-20.4-15.4-33.2V80.4c0-14.5-9.8-26.9-23.9-30.3c-1.5-0.4-2.5-1.9-2.1-3.5
		c0.2-0.8,0.6-1.4,1.3-1.8c0.5-0.3,1-0.4,1.5-0.4c0.2,0,0.4,0,0.7,0.1c16.7,3.9,28.3,18.7,28.3,35.9v15.2c0,10.9,4.7,21.3,13,28.5
		l0.1,0.1c0.1,0.1,0.2,0.2,0.3,0.2c1.9,1.6,2.9,3.9,2.9,6.3c0,4.6-3.7,8.3-8.3,8.3H290h-6.1h-26h-6.2H226c-4.6,0-8.3-3.7-8.3-8.3
		C217.6,128.3,218.7,126,220.6,124.4z"/>
</g>
<text transform="matrix(1 0 0 1 -874.5714 379.7144)" style="font-family:'ClearSans-Bold'; font-size:12px;">•</text>
<g>
	<path class="st4" d="M44.7,145.1c0-24.5,0-49,0-73.4c0.6-1.2,1.6-1.6,2.9-1.5c0.9,0.1,1.7,0,2.6,0c1.3,0,2.6,0,4,0
		c0-3.7,0-7.3,0-10.9c0-2.2,0.7-2.9,2.9-2.9c2.2,0,4.4,0,6.6,0c0-3,0.1-5.9,0-8.7c0-1.3,0.4-2.3,1.5-2.9c29.5,0,59,0,88.6,0
		c1.2,0.6,1.5,1.6,1.5,2.9c0,31.8,0,63.6,0,95.3c0,1.1-0.1,2.2-0.3,3.3c-1.3,5.5-5.9,9-11.8,9c-22.4,0-44.8,0-67.2,0
		c-6.5,0-13,0-19.5,0c-5.2,0-9.6-3.2-11.2-8.1C45.1,146.5,44.9,145.8,44.7,145.1z M58.5,60.7c0,0.5,0,1,0,1.5c0,26.1,0,52.3,0,78.4
		c0,2-0.7,3-2.1,3c-1.4,0-2.2-1-2.2-3.1c0-21.6,0-43.1,0-64.7c0-0.4,0-0.8,0-1.3c-1.8,0-3.4,0-5.2,0c0,0.5,0,0.8,0,1.2
		c0,22.4,0,44.7,0,67.1c0,0.4,0,0.8,0,1.2c0.2,3.7,3.3,6.8,7,6.9c4.2,0.1,7.6-3.1,7.6-7.5c0-9.4,0-18.7,0-28.1c0-0.4,0-0.7,0-1.1
		c0.1-1.2,1-2,2.2-2c1.1,0,2,0.9,2.1,2c0,0.3,0,0.6,0,1c0,9.2,0,18.4,0,27.5c0,2.8-0.6,5.4-2.3,7.7c-0.1,0.1-0.1,0.2-0.1,0.4
		c0.4,0,0.8,0,1.2,0c25.4,0,50.7,0,76.1,0c5,0,8.1-3,8.1-8c0-30.9,0-61.8,0-92.6c0-0.4,0-0.8,0-1.2c-27.7,0-55.3,0-82.9,0
		c0,0.5,0,0.9,0,1.3c0,14.6,0,29.2,0,43.7c0,0.4,0,0.8,0,1.2c-0.2,1.1-1.1,1.8-2.1,1.8c-1.1,0-2-0.8-2.2-1.9c-0.1-0.4,0-0.8,0-1.2
		c0-10.7,0-21.4,0-32.1c0-0.4,0-0.8,0-1.3C62,60.7,60.3,60.7,58.5,60.7z"/>
	<path class="st4" d="M109.5,78.8c-10.8,0-21.7,0-32.5,0c-2.3,0-2.9-0.7-2.9-3c0-4.7,0-9.4,0-14.1c0-2,0.7-2.8,2.7-2.8
		c21.8,0,43.6,0,65.4,0c2,0,2.7,0.8,2.7,2.7c0,4.8,0,9.6,0,14.4c0,2-0.7,2.8-2.8,2.8C131.2,78.8,120.4,78.8,109.5,78.8z M140.5,63.4
		c-20.8,0-41.4,0-62.1,0c0,3.7,0,7.4,0,11.1c20.7,0,41.4,0,62.1,0C140.5,70.7,140.5,67.1,140.5,63.4z"/>
	<path class="st4" d="M74.1,107.8c0-6.7,0-13.4,0-20.1c0-2.1,0.7-2.8,2.9-2.8c10.6,0,21.2,0,31.8,0c2.2,0,2.9,0.7,2.9,2.9
		c0,13.3,0,26.6,0,39.9c0,2.3-0.7,2.9-3,2.9c-10.6,0-21.2,0-31.7,0c-2.2,0-2.9-0.7-2.9-2.9C74.1,121.1,74.1,114.4,74.1,107.8z
		 M107.3,126.3c0-12.4,0-24.7,0-37c-9.7,0-19.2,0-28.8,0c0,12.4,0,24.7,0,37C88.1,126.3,97.6,126.3,107.3,126.3z"/>
	<path class="st5" d="M109.5,141c-10.8,0-21.6,0-32.4,0c-0.4,0-0.8,0-1.2,0c-1.1-0.2-1.9-1.1-1.8-2.2c0-1,0.8-1.9,1.9-2.1
		c0.4-0.1,0.7,0,1.1,0c21.7,0,43.3,0,65,0c0.3,0,0.7,0,1,0c1.1,0.1,1.9,1,1.9,2.1c0,1.1-0.8,2.1-2,2.2c-0.4,0-0.7,0-1.1,0
		C131.1,141,120.3,141,109.5,141z"/>
	<path class="st5" d="M131.3,84.9c3.7,0,7.3,0,11,0c1.6,0,2.6,0.9,2.6,2.2c0,1.3-1,2.1-2.6,2.1c-7.3,0-14.7,0-22,0
		c-1.6,0-2.6-0.9-2.6-2.2c0-1.3,1-2.1,2.6-2.1C124,84.9,127.6,84.9,131.3,84.9z"/>
	<path class="st5" d="M131.4,95.2c3.6,0,7.3,0,10.9,0c1.6,0,2.6,0.9,2.6,2.2c0,1.3-1,2.1-2.6,2.1c-7.3,0-14.7,0-22,0
		c-1.6,0-2.6-0.9-2.6-2.2c0-1.3,1-2.1,2.6-2.1C124,95.2,127.7,95.2,131.4,95.2z"/>
	<path class="st5" d="M131.2,109.9c-3.6,0-7.3,0-10.9,0c-1.6,0-2.6-0.9-2.6-2.2c0-1.3,1-2.1,2.6-2.1c7.3,0,14.7,0,22,0
		c1.6,0,2.6,0.8,2.6,2.1c0,1.3-1,2.2-2.6,2.2C138.6,109.9,134.9,109.9,131.2,109.9z"/>
	<path class="st5" d="M131.3,116c3.7,0,7.3,0,11,0c1.6,0,2.6,0.9,2.6,2.2c0,1.3-1,2.1-2.6,2.1c-7.3,0-14.7,0-22,0
		c-1.6,0-2.6-0.9-2.6-2.2c0-1.3,1-2.1,2.6-2.1C124,116,127.6,116,131.3,116z"/>
	<path class="st5" d="M131.3,130.7c-3.7,0-7.3,0-11,0c-1.6,0-2.6-0.9-2.6-2.2c0-1.3,1-2.1,2.6-2.1c7.3,0,14.7,0,22,0
		c1.6,0,2.6,0.9,2.6,2.2c0,1.3-1,2.1-2.6,2.1C138.6,130.7,135,130.7,131.3,130.7z"/>
	<path class="st5" d="M65.9,106.9c-1.2,0-2.1-1-2.1-2.2c0-1.2,0.9-2.1,2.1-2.2c1.2,0,2.2,1,2.2,2.2C68.1,106,67.1,106.9,65.9,106.9z
		"/>
</g>
<g class="st1">
	<path class="st3" d="M63.8,50.1c1.2,2.3,1.2,4.7,1.2,7c0,28.5,0,57,0,85.5c0,1.2,0.4,2,1.4,2.6c2.1,1.3,4.2,2.7,6.2,4.1
		c0.8,0.6,1.5,0.6,2.4,0.2c3.3-1.7,6.6-3.3,9.9-5c2.7-1.4,5.3-1.3,7.8,0.5c2.1,1.4,4.2,2.8,6.3,4.2c0.9,0.6,1.5,0.6,2.3,0
		c2.1-1.5,4.3-2.9,6.5-4.3c2.3-1.6,4.7-1.7,7.3-0.5c3.4,1.7,6.8,3.4,10.2,5.1c0.8,0.4,1.5,0.4,2.3-0.1c2.2-1.5,4.4-3,6.6-4.4
		c0.7-0.5,1.1-1.1,1.1-2c0-1.3,0-2.7,0-4c0-1.8,1.2-3,2.9-2.9c1.6,0,2.8,1.2,2.8,2.9c0,1.7,0.1,3.4,0,5.1c-0.1,2.2-1.1,4-3,5.3
		c-2.5,1.7-5.1,3.4-7.7,5.1c-2.2,1.5-4.6,1.6-7,0.4c-3.5-1.7-6.9-3.4-10.3-5.2c-0.9-0.5-1.6-0.4-2.4,0.2c-2.1,1.5-4.2,2.8-6.3,4.2
		c-2.9,1.9-5.4,1.9-8.3,0c-2.2-1.4-4.3-2.9-6.5-4.3c-0.7-0.5-1.3-0.5-2.1-0.1c-3.4,1.7-6.8,3.4-10.1,5.1c-2.7,1.4-5.2,1.2-7.7-0.5
		c-2.2-1.6-4.5-3.1-6.8-4.5c-2.4-1.5-3.5-3.7-3.5-6.5c0-12.9,0-25.8,0-38.7c0-1.1-0.3-1.3-1.3-1.3c-2,0-4,0.2-6-0.3
		c-4.7-1.2-7.9-5.3-7.9-10.2c0-12.4,0-24.8,0-37.2c0-6.6,4.4-11,11-11c23.7,0,47.4,0,71.1,0c1.9,0,3.7,0.3,5.4,0.9
		c5.5,2.1,9.1,7.3,9.2,13.1c0,1.3,0,2.5,0,3.8c0,1.7-1.3,3-2.9,3c-1.6,0-2.7-1.3-2.8-3c0-1.6,0.1-3.2-0.1-4.7
		c-0.6-4.4-4.1-7.4-8.7-7.4c-11.6,0-23.2,0-34.8,0c-8.7,0-17.5,0-26.2,0C64.9,50.1,64.4,50.1,63.8,50.1z M59.2,75.7
		c0-6.9,0-13.9,0-20.8c0-2.7-2.1-4.8-4.7-4.8c-2.6,0-4.7,2-4.7,4.6c0,12.7,0,25.4,0,38.1c0,2.6,2,4.5,4.6,4.6c1.3,0,2.5-0.1,3.8,0
		c0.9,0.1,1.1-0.2,1.1-1.1C59.2,89.5,59.2,82.6,59.2,75.7z"/>
	<path class="st6" d="M122.8,67.1c18.3,0,33.2,14.9,33.2,33.2c0,18.3-14.9,33.2-33.3,33.2c-18.3,0-33.1-14.9-33.1-33.2
		C89.6,82,104.5,67.1,122.8,67.1z M122.7,127.8c15.2,0,27.5-12.3,27.6-27.5c0-15.2-12.3-27.5-27.5-27.5c-15.1,0-27.5,12.3-27.5,27.4
		C95.2,115.4,107.5,127.8,122.7,127.8z"/>
	<path class="st3" d="M85,59.5c2.7,0,5.4,0,8.2,0c1.8,0,3,1.1,3.1,2.7c0,1.6-1.2,2.9-3,2.9c-5.6,0-11.1,0-16.7,0
		c-1.8,0-3.1-1.3-3-2.9c0.1-1.6,1.3-2.7,3.1-2.7C79.4,59.5,82.2,59.5,85,59.5z"/>
	<path class="st3" d="M80.9,74.9c-1.5,0-3,0-4.5,0c-1.7,0-3-1.3-3-2.9c0-1.6,1.2-2.8,2.9-2.8c3.1,0,6.2,0,9.3,0
		c1.7,0,2.9,1.2,2.9,2.8c0,1.6-1.2,2.8-3,2.9C84.1,75,82.5,74.9,80.9,74.9z"/>
	<path class="st3" d="M87.7,130.7c-1.6,0-2.9-1.2-2.9-2.8c0-1.6,1.3-2.9,2.9-2.9c1.5,0,2.8,1.2,2.8,2.8
		C90.6,129.4,89.3,130.7,87.7,130.7z"/>
	<path class="st6" d="M78.1,130.6c-1.5,0-2.7-1.2-2.7-2.7c0-1.5,1.3-2.8,2.8-2.7c1.5,0,2.7,1.3,2.7,2.7
		C81,129.4,79.7,130.6,78.1,130.6z"/>
	<path class="st6" d="M115.6,107.6c1.5-0.1,2.3,0.8,2.9,2c1.4,2.6,4.2,3.5,6.6,2.1c1.8-1,2.7-3.1,2.3-5c-0.5-2.1-2.1-3.6-4.3-3.8
		c-2.8-0.2-5.4-1.1-7.5-3c-5.3-4.8-3.9-13.8,2.8-16.8c1.2-0.6,1.6-1.1,1.6-2.5c-0.1-2.4,2.3-3.8,4.2-2.6c1,0.6,1.5,1.5,1.4,2.6
		c-0.2,1.4,0.4,2,1.7,2.5c2.4,1,4.2,2.8,5.3,5.2c0.8,1.6,0.3,3.1-1,3.9c-1.5,0.8-3.4,0.3-4.2-1.2c-0.7-1.3-1.5-2.4-3-2.9
		c-1.9-0.6-3.6-0.3-5,1.2c-1.4,1.4-1.7,3.2-1,5c0.8,1.9,2.3,2.9,4.3,3c3.3,0.1,6,1.3,8.1,3.8c4.6,5.6,2.4,13.9-4.4,16.4
		c-0.6,0.2-0.9,0.5-0.8,1.2c0.1,0.5,0,1.1,0,1.7c-0.2,1.5-1.5,2.6-2.9,2.6c-1.4-0.1-2.8-1.2-2.7-2.6c0.2-2-0.6-2.7-2.4-3.4
		c-2.1-0.8-3.7-2.5-4.8-4.6C111.6,109.9,113,107.6,115.6,107.6z"/>
</g>
<g class="st1">
	<path class="st3" d="M-111.9,154.6c-1,0.6-2,1.2-3.1,1.8c-0.2-0.4-0.5-0.7-0.7-1c-2.1-3.6-4.1-7.2-6.2-10.8
		c-1.4-2.4-2.8-4.7-1.9-7.7c-3.8,0-7.6,0-11.5,0c0.4,0.7,0.7,1.2,1.1,1.8c1.3,2.2,2,4.5,1.9,7.1c0,3.2,0,6.4,0,9.6
		c-1.2,0-2.4,0-3.7,0c0-2-0.2-4,0-5.9c0.4-4.5-0.7-8.5-3.4-12.1c-0.7-0.9-1.1-1.9-1.7-2.8c-0.7-1-0.6-1.9,0-2.9
		c2.7-4.5,5.3-9.1,7.9-13.6c0.6-1,0.9-2.1,0.6-3.2c-0.4-1.5-1.4-2.4-2.9-2.7c-1.6-0.3-2.9,0.2-3.8,1.7c-1,1.6-1.8,3.2-2.8,4.7
		c-2.8,4.9-5.6,9.8-8.5,14.8c-1.1-0.6-2.1-1.2-3.1-1.8c0-0.2,0-0.3,0-0.3c1.4-1.8,1.8-3.7,1-5.9c-0.2-0.7-0.1-1.5-0.1-2.2
		c0-8.3,0-16.6,0-24.9c0-0.4,0-0.8,0-1.2c-0.1,0-0.1,0-0.2,0c-0.2,0.3-0.3,0.7-0.5,1c-2.3,5-4.6,10-6.9,14.9
		c-1.2,2.6-1.8,5.3-1.8,8.1c0,11,0,22,0,33c0,0.5,0,0.9,0,1.4c-1.3,0-2.4,0-3.7,0c0-0.4,0-0.8,0-1.2c0-11.1,0-22.2,0-33.4
		c0-3.3,0.7-6.4,2-9.4c2.7-5.8,5.4-11.7,8.1-17.5c0.5-1.1,1.6-1.9,2.4-2.9c0.3-0.4,0.5-0.9,0.5-1.4c0-11,0-21.9,0-32.9
		c0-6.3,4.1-11.5,10.1-12.9c1.1-0.3,2.2-0.3,3.4-0.3c12.2,0,24.4,0,36.5,0c7.8,0,13.4,5.7,13.5,13.5c0,21.3,0,42.5,0,63.8
		c0,0.9,0.3,1.3,1.1,1.8c1.3,0.6,2.4,1.7,3.7,2.6c1.5-1.1,3.5-1.8,5.7-1.4c2.2,0.4,3.9,1.6,5.2,3.4c3.7-2.2,6.7-2.2,9.4-0.1
		c1.7,1.3,2.8,3.1,2.8,5.3c0.1,7.6,0,15.2,0,22.9c-1.2,0-2.4,0-3.7,0c0-0.4,0-0.8,0-1.2c0-7,0-13.9,0-20.9c0-2.8-2.6-4.7-5.1-3.6
		c-1.5,0.6-2.3,1.8-2.3,3.4c0,1.2,0,2.3,0,3.5c0,1.3-0.8,2.1-1.9,2.1c-1.1,0-1.8-0.8-1.9-2.1c0-1.6,0-3.1,0-4.7
		c0-2.7-1.4-4.4-3.7-4.4c-2.3,0-3.8,1.7-3.8,4.4c0,1.6,0,3.1,0,4.7c0,1.3-0.7,2.1-1.8,2.1c-1.1,0-1.9-0.8-1.9-2.2c0-2.3,0-4.6,0-6.9
		c0-2.4-1.6-4-3.8-4c-2.1,0-3.7,1.7-3.7,4c0,2.3,0,4.5,0,6.8c0,1.5-0.7,2.3-1.9,2.3c-1.2,0-1.8-0.9-1.8-2.3c0-9.7,0-19.4,0-29.1
		c0-2.9-2.5-4.8-5.1-3.8c-1.5,0.6-2.4,1.9-2.4,3.7c0,3.9,0,7.8,0,11.7c0,7.5,0,15,0,22.5c0,0.3,0,0.5,0,0.8c0,1-0.4,1.8-1.4,2.1
		c-1,0.3-1.7-0.2-2.2-1c-1.2-2.1-2.4-4.3-3.7-6.4c-0.8-1.4-2.3-2-3.8-1.7c-1.6,0.3-2.9,1.5-3,3.1c-0.1,0.9,0.2,2,0.7,2.9
		c2.3,4.2,4.7,8.3,7.1,12.4C-112.3,153.9-112.1,154.2-111.9,154.6z M-137.6,133.1c0.3,0,0.5,0.1,0.6,0.1c4.9,0,9.9,0,14.8,0
		c0.4,0,0.9-0.2,1.3-0.5c2.6-1.7,5.8-1.8,8.3-0.1c0.9,0.6,1.7,0.6,2.6,0.4c0-0.5,0-0.9,0-1.3c0-8.2,0-16.4,0-24.6
		c0-4.2,3.3-7.5,7.4-7.5c4.1,0,7.4,3.3,7.5,7.5c0,4.4,0,8.9,0,13.3c0,0.8,0,1.6,0,2.4c1.9-0.5,1.9-0.5,1.9-2.3c0-21.1,0-42.2,0-63.4
		c0-5.9-4-9.9-9.9-9.9c-12.1,0-24.1,0-36.2,0c-6,0-9.9,3.9-9.9,9.9c0,21.5,0,42.9,0,64.4c0,0.4,0,0.7,0,1.1c0.5-0.3,0.7-0.7,0.9-1.1
		c1.9-3.2,3.7-6.5,5.6-9.7c1.6-2.7,4.7-4,7.7-3.5c2.9,0.5,5.3,2.8,6,5.9c0.4,2,0,3.9-1.1,5.7C-132.6,124.3-135.1,128.6-137.6,133.1z
		"/>
	<path class="st3" d="M-157.3,70.2c-0.9,0.9-1.7,1.7-2.7,2.7c-0.6-0.8-1.2-1.6-1.8-2.4c-0.1,0.1-0.2,0.1-0.4,0.2
		c0,7.1,0,14.1,0,21.3c-1.3,0-2.5,0-3.8,0c0-7.1,0-14.1,0-21.5c-0.9,0.9-1.7,1.6-2.4,2.3c-0.9-0.9-1.7-1.7-2.5-2.6
		c1.8-1.9,3.7-3.8,5.6-5.6c0.8-0.8,1.7-0.7,2.5,0C-161,66.4-159.2,68.3-157.3,70.2z"/>
	<path class="st3" d="M-71.4,70.2c-0.9,0.9-1.7,1.7-2.7,2.7c-0.6-0.8-1.3-1.6-1.9-2.4c-0.1,0.1-0.2,0.1-0.4,0.2c0,7.1,0,14.1,0,21.3
		c-1.3,0-2.5,0-3.8,0c0-7.1,0-14.1,0-21.5c-0.9,0.9-1.7,1.6-2.4,2.3c-0.9-0.9-1.7-1.8-2.5-2.7c1.8-1.8,3.6-3.7,5.5-5.6
		c0.8-0.8,1.7-0.7,2.5,0C-75.1,66.4-73.3,68.3-71.4,70.2z"/>
	<path class="st3" d="M-165.9,95.9c1.2,0,2.4,0,3.6,0c0,1.2,0,2.3,0,3.6c-1.2,0-2.3,0-3.6,0C-165.9,98.3-165.9,97.1-165.9,95.9z"/>
	<path class="st3" d="M-80,95.8c1.2,0,2.3,0,3.6,0c0,1.2,0,2.4,0,3.6c-1.1,0-2.3,0-3.6,0C-80,98.3-80,97.1-80,95.8z"/>
	<path class="st3" d="M-80,103.3c1.2,0,2.4,0,3.6,0c0,1.2,0,2.4,0,3.6c-1.2,0-2.4,0-3.6,0C-80,105.8-80,104.6-80,103.3z"/>
	<path class="st6" d="M-102.5,84.6c0,10.3-8.4,18.7-18.7,18.7c-10.3,0-18.7-8.4-18.7-18.7c0-10.3,8.4-18.6,18.8-18.6
		C-110.9,66-102.5,74.4-102.5,84.6z M-121.1,99.5c8.1,0,14.9-6.7,14.9-14.9c0-8.3-6.7-15-14.9-15c-8.3,0-14.9,6.7-14.9,15
		C-136.1,92.9-129.4,99.6-121.1,99.5z"/>
	<path class="st3" d="M-121.2,129.4c-1.3,0-2.6,0-3.8,0c-3.1-0.1-5.5-2.6-5.5-5.7c0-3,2.4-5.5,5.5-5.5c2.6,0,5.1,0,7.7,0
		c3,0.1,5.5,2.5,5.5,5.5c0,3.1-2.4,5.6-5.5,5.6C-118.6,129.4-119.9,129.4-121.2,129.4z M-121.2,122c-1.2,0-2.4,0-3.6,0
		c-1.2,0-2,0.8-2,1.9c0,1.1,0.8,1.8,2,1.9c2.4,0,4.8,0,7.2,0c1.2,0,2-0.8,2-1.9c0-1.1-0.8-1.8-2-1.9C-118.8,121.9-120,122-121.2,122
		z"/>
	<path class="st3" d="M-128.6,51c5,0,9.8,0,14.8,0c0,1.2,0,2.4,0,3.6c-4.9,0-9.8,0-14.8,0C-128.6,53.5-128.6,52.3-128.6,51z"/>
	<path class="st3" d="M-132.5,54.7c-1.2,0-2.4,0-3.6,0c0-1.2,0-2.4,0-3.6c1.2,0,2.3,0,3.6,0C-132.5,52.2-132.5,53.4-132.5,54.7z"/>
	<path class="st6" d="M-128.9,88.4c1.5,0,2.7,0,3.9,0c0.3,1.5,1.4,1.9,2.8,1.8c0.9-0.1,1.9,0,2.8,0c1.1,0,1.9-0.8,1.9-1.8
		c0-1.1-0.8-1.9-1.9-1.9c-1.1,0-2.3,0-3.4,0c-3.2,0-5.6-2.2-5.9-5.2c-0.2-3.1,1.9-5.5,5.1-6c0.1,0,0.2,0,0.4-0.1
		c0-0.5,0.1-1.1,0.1-1.7c1.2,0,2.4,0,3.7,0c0,0.6,0,1.1,0,1.7c1.9,0.2,3.6,0.8,4.6,2.5c0.6,0.9,0.8,2,1.3,3.2c-1.5,0-2.7,0-3.9,0
		c-0.3-1.5-1.4-1.9-2.8-1.8c-0.9,0.1-1.9,0-2.8,0c-1.1,0-1.9,0.8-1.9,1.8c0,1.1,0.8,1.9,1.9,1.9c1.1,0,2.3,0,3.4,0
		c3.2,0,5.6,2.2,5.9,5.2c0.2,3-1.8,5.5-5,6c-0.2,0-0.3,0-0.6,0.1c0,0.6-0.1,1.1-0.1,1.8c-1.2,0-2.4,0-3.7,0c0-0.6,0-1.1,0-1.7
		c-1.9-0.2-3.6-0.8-4.6-2.4C-128.1,90.7-128.4,89.6-128.9,88.4z"/>
</g>
</svg>
